<?xml version="1.0" encoding="UTF-8" standalone="no"?>
<svg xmlns="http://www.w3.org/2000/svg" width="1512" height="735" viewBox="0 0 1512 735">
<style>
  .title { font: bold 20px sans-serif }
  .lifeline-label { font: bold 17px sans-serif }
  .simple { font-family: sans-serif }
  text { white-space: pre }
</style>
<defs>
  <marker id="arrow" viewBox="0 0 20 20" refX="20" refY="10"
      markerWidth="12" markerHeight="12"
      orient="auto-start-reverse">
    <path d="M 0 0 L 20 10 L 0 20 z" />
  </marker>
</defs>
<rect width="1512" height="735" fill="white" />
<polyline points="1510,2 1510,733 2,733 2,2 1510,2" fill="none" stroke="black" style="stroke-width:2px"/>
<polyline points="0,45 414,45 434,25 434,0" fill="none" stroke="black" style="stroke-width:2px"/>
<text  x="10" y="30" class="title">My Timing &amp; Testing Diagram</text><rect x="322" y="70" width="1170" height="190" stroke="black" fill="none" /><text  x="20" y="165" class="lifeline-label">Client 1</text><text text-anchor="middle" x="332" y="285" class="simple">0</text><line x1="332" y1="255" x2="332" y2="270" stroke="black" /><text text-anchor="middle" x="382" y="285" class="simple">1</text><line x1="382" y1="255" x2="382" y2="270" stroke="black" /><text text-anchor="middle" x="432" y="285" class="simple">2</text><line x1="432" y1="255" x2="432" y2="270" stroke="black" /><text text-anchor="middle" x="482" y="285" class="simple">3</text><line x1="482" y1="255" x2="482" y2="270" stroke="black" /><text text-anchor="middle" x="532" y="285" class="simple">4</text><line x1="532" y1="255" x2="532" y2="270" stroke="black" /><text text-anchor="middle" x="582" y="285" class="simple">5</text><line x1="582" y1="255" x2="582" y2="270" stroke="black" /><text text-anchor="middle" x="632" y="285" class="simple">6</text><line x1="632" y1="255" x2="632" y2="270" stroke="black" /><text text-anchor="middle" x="682" y="285" class="simple">7</text><line x1="682" y1="255" x2="682" y2="270" stroke="black" /><text text-anchor="middle" x="732" y="285" class="simple">8</text><line x1="732" y1="255" x2="732" y2="270" stroke="black" /><text text-anchor="middle" x="782" y="285" class="simple">9</text><line x1="782" y1="255" x2="782" y2="270" stroke="black" /><text text-anchor="middle" x="832" y="285" class="simple">10</text><line x1="832" y1="255" x2="832" y2="270" stroke="black" /><text text-anchor="middle" x="882" y="285" class="simple">11</text><line x1="882" y1="255" x2="882" y2="270" stroke="black" /><text text-anchor="middle" x="932" y="285" class="simple">12</text><line x1="932" y1="255" x2="932" y2="270" stroke="black" /><text text-anchor="middle" x="982" y="285" class="simple">13</text><line x1="982" y1="255" x2="982" y2="270" stroke="black" /><text text-anchor="middle" x="1032" y="285" class="simple">14</text><line x1="1032" y1="255" x2="1032" y2="270" stroke="black" /><text text-anchor="middle" x="1082" y="285" class="simple">15</text><line x1="1082" y1="255" x2="1082" y2="270" stroke="black" /><text text-anchor="middle" x="1132" y="285" class="simple">16</text><line x1="1132" y1="255" x2="1132" y2="270" stroke="black" /><text text-anchor="middle" x="1182" y="285" class="simple">17</text><line x1="1182" y1="255" x2="1182" y2="270" stroke="black" /><text text-anchor="middle" x="1232" y="285" class="simple">18</text><line x1="1232" y1="255" x2="1232" y2="270" stroke="black" /><text text-anchor="middle" x="1282" y="285" class="simple">19</text><line x1="1282" y1="255" x2="1282" y2="270" stroke="black" /><text text-anchor="middle" x="1332" y="285" class="simple">20</text><line x1="1332" y1="255" x2="1332" y2="270" stroke="black" /><text text-anchor="middle" x="1382" y="285" class="simple">21</text><line x1="1382" y1="255" x2="1382" y2="270" stroke="black" /><text text-anchor="middle" x="1432" y="285" class="simple">22</text><line x1="1432" y1="255" x2="1432" y2="270" stroke="black" /><text text-anchor="middle" x="1482" y="285" class="simple">23</text><line x1="1482" y1="255" x2="1482" y2="270" stroke="black" /><line x1="312" y1="240" x2="327" y2="240" stroke="black" /><text text-anchor="end" x="307" y="245" class="simple">Waiting for keyboard input</text><line x1="312" y1="200" x2="327" y2="200" stroke="black" /><text text-anchor="end" x="307" y="205" class="simple">Updating internal state</text><line x1="312" y1="160" x2="327" y2="160" stroke="black" /><text text-anchor="end" x="307" y="165" class="simple">Rendering</text><line x1="312" y1="120" x2="327" y2="120" stroke="black" /><text text-anchor="end" x="307" y="125" class="simple">Sending update to server</text><polyline points="332,240 382,240 432,240 482,240 532,240 532,200 582,200 582,160 632,160 632,120 682,120 682,240 732,240 782,240 832,240 882,240 932,240 932,200 982,200 982,160 1032,160 1032,120 1082,120 1082,240 1132,240 1132,200 1182,200 1182,160 1232,160 1232,120 1282,120 1282,240 1332,240 1382,240 1432,240 1482,240" fill="none" stroke="black" style="stroke-width:2px"/><rect x="322" y="305" width="1170" height="190" stroke="black" fill="none" /><text  x="20" y="400" class="lifeline-label">Client 2</text><text text-anchor="middle" x="332" y="520" class="simple">0</text><line x1="332" y1="490" x2="332" y2="505" stroke="black" /><text text-anchor="middle" x="382" y="520" class="simple">1</text><line x1="382" y1="490" x2="382" y2="505" stroke="black" /><text text-anchor="middle" x="432" y="520" class="simple">2</text><line x1="432" y1="490" x2="432" y2="505" stroke="black" /><text text-anchor="middle" x="482" y="520" class="simple">3</text><line x1="482" y1="490" x2="482" y2="505" stroke="black" /><text text-anchor="middle" x="532" y="520" class="simple">4</text><line x1="532" y1="490" x2="532" y2="505" stroke="black" /><text text-anchor="middle" x="582" y="520" class="simple">5</text><line x1="582" y1="490" x2="582" y2="505" stroke="black" /><text text-anchor="middle" x="632" y="520" class="simple">6</text><line x1="632" y1="490" x2="632" y2="505" stroke="black" /><text text-anchor="middle" x="682" y="520" class="simple">7</text><line x1="682" y1="490" x2="682" y2="505" stroke="black" /><text text-anchor="middle" x="732" y="520" class="simple">8</text><line x1="732" y1="490" x2="732" y2="505" stroke="black" /><text text-anchor="middle" x="782" y="520" class="simple">9</text><line x1="782" y1="490" x2="782" y2="505" stroke="black" /><text text-anchor="middle" x="832" y="520" class="simple">10</text><line x1="832" y1="490" x2="832" y2="505" stroke="black" /><text text-anchor="middle" x="882" y="520" class="simple">11</text><line x1="882" y1="490" x2="882" y2="505" stroke="black" /><text text-anchor="middle" x="932" y="520" class="simple">12</text><line x1="932" y1="490" x2="932" y2="505" stroke="black" /><text text-anchor="middle" x="982" y="520" class="simple">13</text><line x1="982" y1="490" x2="982" y2="505" stroke="black" /><text text-anchor="middle" x="1032" y="520" class="simple">14</text><line x1="1032" y1="490" x2="1032" y2="505" stroke="black" /><text text-anchor="middle" x="1082" y="520" class="simple">15</text><line x1="1082" y1="490" x2="1082" y2="505" stroke="black" /><text text-anchor="middle" x="1132" y="520" class="simple">16</text><line x1="1132" y1="490" x2="1132" y2="505" stroke="black" /><text text-anchor="middle" x="1182" y="520" class="simple">17</text><line x1="1182" y1="490" x2="1182" y2="505" stroke="black" /><text text-anchor="middle" x="1232" y="520" class="simple">18</text><line x1="1232" y1="490" x2="1232" y2="505" stroke="black" /><text text-anchor="middle" x="1282" y="520" class="simple">19</text><line x1="1282" y1="490" x2="1282" y2="505" stroke="black" /><text text-anchor="middle" x="1332" y="520" class="simple">20</text><line x1="1332" y1="490" x2="1332" y2="505" stroke="black" /><text text-anchor="middle" x="1382" y="520" class="simple">21</text><line x1="1382" y1="490" x2="1382" y2="505" stroke="black" /><text text-anchor="middle" x="1432" y="520" class="simple">22</text><line x1="1432" y1="490" x2="1432" y2="505" stroke="black" /><text text-anchor="middle" x="1482" y="520" class="simple">23</text><line x1="1482" y1="490" x2="1482" y2="505" stroke="black" /><line x1="312" y1="475" x2="327" y2="475" stroke="black" /><text text-anchor="end" x="307" y="480" class="simple">Waiting for keyboard input</text><line x1="312" y1="435" x2="327" y2="435" stroke="black" /><text text-anchor="end" x="307" y="440" class="simple">Updating internal state</text><line x1="312" y1="395" x2="327" y2="395" stroke="black" /><text text-anchor="end" x="307" y="400" class="simple">Rendering</text><line x1="312" y1="355" x2="327" y2="355" stroke="black" /><text text-anchor="end" x="307" y="360" class="simple">Sending update to server</text><polyline points="332,475 382,475 432,475 432,435 482,435 482,395 532,395 532,355 582,355 582,475 632,475 682,475 732,475 782,475 832,475 832,435 882,435 882,395 932,395 932,355 982,355 982,475 1032,475 1032,435 1082,435 1082,395 1132,395 1132,355 1182,355 1182,475 1232,475 1282,475 1332,475 1382,475 1432,475 1482,475" fill="none" stroke="black" style="stroke-width:2px"/><rect x="322" y="540" width="1170" height="150" stroke="black" fill="none" /><text  x="20" y="615" class="lifeline-label">Server</text><text text-anchor="middle" x="332" y="715" class="simple">0</text><line x1="332" y1="685" x2="332" y2="700" stroke="black" /><text text-anchor="middle" x="382" y="715" class="simple">1</text><line x1="382" y1="685" x2="382" y2="700" stroke="black" /><text text-anchor="middle" x="432" y="715" class="simple">2</text><line x1="432" y1="685" x2="432" y2="700" stroke="black" /><text text-anchor="middle" x="482" y="715" class="simple">3</text><line x1="482" y1="685" x2="482" y2="700" stroke="black" /><text text-anchor="middle" x="532" y="715" class="simple">4</text><line x1="532" y1="685" x2="532" y2="700" stroke="black" /><text text-anchor="middle" x="582" y="715" class="simple">5</text><line x1="582" y1="685" x2="582" y2="700" stroke="black" /><text text-anchor="middle" x="632" y="715" class="simple">6</text><line x1="632" y1="685" x2="632" y2="700" stroke="black" /><text text-anchor="middle" x="682" y="715" class="simple">7</text><line x1="682" y1="685" x2="682" y2="700" stroke="black" /><text text-anchor="middle" x="732" y="715" class="simple">8</text><line x1="732" y1="685" x2="732" y2="700" stroke="black" /><text text-anchor="middle" x="782" y="715" class="simple">9</text><line x1="782" y1="685" x2="782" y2="700" stroke="black" /><text text-anchor="middle" x="832" y="715" class="simple">10</text><line x1="832" y1="685" x2="832" y2="700" stroke="black" /><text text-anchor="middle" x="882" y="715" class="simple">11</text><line x1="882" y1="685" x2="882" y2="700" stroke="black" /><text text-anchor="middle" x="932" y="715" class="simple">12</text><line x1="932" y1="685" x2="932" y2="700" stroke="black" /><text text-anchor="middle" x="982" y="715" class="simple">13</text><line x1="982" y1="685" x2="982" y2="700" stroke="black" /><text text-anchor="middle" x="1032" y="715" class="simple">14</text><line x1="1032" y1="685" x2="1032" y2="700" stroke="black" /><text text-anchor="middle" x="1082" y="715" class="simple">15</text><line x1="1082" y1="685" x2="1082" y2="700" stroke="black" /><text text-anchor="middle" x="1132" y="715" class="simple">16</text><line x1="1132" y1="685" x2="1132" y2="700" stroke="black" /><text text-anchor="middle" x="1182" y="715" class="simple">17</text><line x1="1182" y1="685" x2="1182" y2="700" stroke="black" /><text text-anchor="middle" x="1232" y="715" class="simple">18</text><line x1="1232" y1="685" x2="1232" y2="700" stroke="black" /><text text-anchor="middle" x="1282" y="715" class="simple">19</text><line x1="1282" y1="685" x2="1282" y2="700" stroke="black" /><text text-anchor="middle" x="1332" y="715" class="simple">20</text><line x1="1332" y1="685" x2="1332" y2="700" stroke="black" /><text text-anchor="middle" x="1382" y="715" class="simple">21</text><line x1="1382" y1="685" x2="1382" y2="700" stroke="black" /><text text-anchor="middle" x="1432" y="715" class="simple">22</text><line x1="1432" y1="685" x2="1432" y2="700" stroke="black" /><text text-anchor="middle" x="1482" y="715" class="simple">23</text><line x1="1482" y1="685" x2="1482" y2="700" stroke="black" /><line x1="312" y1="670" x2="327" y2="670" stroke="black" /><text text-anchor="end" x="307" y="675" class="simple">Waiting for updates</text><line x1="312" y1="630" x2="327" y2="630" stroke="black" /><text text-anchor="end" x="307" y="635" class="simple">Computing state</text><line x1="312" y1="590" x2="327" y2="590" stroke="black" /><text text-anchor="end" x="307" y="595" class="simple">Updating clients</text><polyline points="332,670 382,670 432,670 482,670 532,670 582,670 582,630 632,630 632,670 682,670 682,630 732,630 732,670 782,670 832,670 832,590 882,590 932,590 932,670 982,670 982,630 1032,630 1032,670 1082,670 1082,630 1132,630 1132,670 1182,670 1182,630 1232,630 1232,670 1282,670 1282,630 1332,630 1332,590 1382,590 1432,590 1432,670 1482,670" fill="none" stroke="black" style="stroke-width:2px"/><polyline points="532,395 582,630" fill="none" stroke="black" marker-end="url(#arrow)" /><text text-anchor="end" x="518.5" y="378.55" class="simple">WS Update</text><polyline points="632,160 682,630" fill="none" stroke="black" marker-end="url(#arrow)" /><text text-anchor="end" x="620" y="141.2" class="simple">WS Update </text><polyline points="932,395 982,630" fill="none" stroke="black" marker-end="url(#arrow)" /><text text-anchor="end" x="918.5" y="378.55" class="simple">WS Update</text><polyline points="1032,160 1082,630" fill="none" stroke="black" marker-end="url(#arrow)" /><text text-anchor="end" x="1020" y="141.2" class="simple">WS Update </text><polyline points="1132,395 1182,630" fill="none" stroke="black" marker-end="url(#arrow)" /><text text-anchor="end" x="1169.5" y="618.25" class="simple">WS Update </text><polyline points="1232,160 1282,630" fill="none" stroke="black" marker-end="url(#arrow)" /><text text-anchor="end" x="1220" y="141.2" class="simple">WS Update </text></svg>
