<?xml version="1.0" encoding="UTF-8" standalone="no"?>
<svg xmlns="http://www.w3.org/2000/svg" width="1506" height="705" viewBox="0 0 1506 705">
<style>
  .title { font: bold 20px sans-serif }
  .lifeline-label { font: bold 17px sans-serif }
  .simple { font-family: sans-serif }
  text { white-space: pre }
</style>
<defs>
  <marker id="arrow" viewBox="0 0 20 20" refX="20" refY="10"
      markerWidth="12" markerHeight="12"
      orient="auto-start-reverse">
    <path d="M 0 0 L 20 10 L 0 20 z" />
  </marker>
</defs>
<rect width="1506" height="705" fill="white" />
<polyline points="1504,2 1504,703 2,703 2,2 1504,2" fill="none" stroke="black" style="stroke-width:2px"/>
<polyline points="0,45 414,45 434,25 434,0" fill="none" stroke="black" style="stroke-width:2px"/>
<text  x="10" y="30" class="title">My Timing &amp; Testing Diagram</text><rect x="316" y="70" width="1170" height="180" stroke="black" fill="none" /><text  x="20" y="160" class="lifeline-label">Client 1</text><text text-anchor="middle" x="326" y="275" class="simple">0</text><line x1="326" y1="245" x2="326" y2="260" stroke="black" /><text text-anchor="middle" x="376" y="275" class="simple">1</text><line x1="376" y1="245" x2="376" y2="260" stroke="black" /><text text-anchor="middle" x="426" y="275" class="simple">2</text><line x1="426" y1="245" x2="426" y2="260" stroke="black" /><text text-anchor="middle" x="476" y="275" class="simple">3</text><line x1="476" y1="245" x2="476" y2="260" stroke="black" /><text text-anchor="middle" x="526" y="275" class="simple">4</text><line x1="526" y1="245" x2="526" y2="260" stroke="black" /><text text-anchor="middle" x="576" y="275" class="simple">5</text><line x1="576" y1="245" x2="576" y2="260" stroke="black" /><text text-anchor="middle" x="626" y="275" class="simple">6</text><line x1="626" y1="245" x2="626" y2="260" stroke="black" /><text text-anchor="middle" x="676" y="275" class="simple">7</text><line x1="676" y1="245" x2="676" y2="260" stroke="black" /><text text-anchor="middle" x="726" y="275" class="simple">8</text><line x1="726" y1="245" x2="726" y2="260" stroke="black" /><text text-anchor="middle" x="776" y="275" class="simple">9</text><line x1="776" y1="245" x2="776" y2="260" stroke="black" /><text text-anchor="middle" x="826" y="275" class="simple">10</text><line x1="826" y1="245" x2="826" y2="260" stroke="black" /><text text-anchor="middle" x="876" y="275" class="simple">11</text><line x1="876" y1="245" x2="876" y2="260" stroke="black" /><text text-anchor="middle" x="926" y="275" class="simple">12</text><line x1="926" y1="245" x2="926" y2="260" stroke="black" /><text text-anchor="middle" x="976" y="275" class="simple">13</text><line x1="976" y1="245" x2="976" y2="260" stroke="black" /><text text-anchor="middle" x="1026" y="275" class="simple">14</text><line x1="1026" y1="245" x2="1026" y2="260" stroke="black" /><text text-anchor="middle" x="1076" y="275" class="simple">15</text><line x1="1076" y1="245" x2="1076" y2="260" stroke="black" /><text text-anchor="middle" x="1126" y="275" class="simple">16</text><line x1="1126" y1="245" x2="1126" y2="260" stroke="black" /><text text-anchor="middle" x="1176" y="275" class="simple">17</text><line x1="1176" y1="245" x2="1176" y2="260" stroke="black" /><text text-anchor="middle" x="1226" y="275" class="simple">18</text><line x1="1226" y1="245" x2="1226" y2="260" stroke="black" /><text text-anchor="middle" x="1276" y="275" class="simple">19</text><line x1="1276" y1="245" x2="1276" y2="260" stroke="black" /><text text-anchor="middle" x="1326" y="275" class="simple">20</text><line x1="1326" y1="245" x2="1326" y2="260" stroke="black" /><text text-anchor="middle" x="1376" y="275" class="simple">21</text><line x1="1376" y1="245" x2="1376" y2="260" stroke="black" /><text text-anchor="middle" x="1426" y="275" class="simple">22</text><line x1="1426" y1="245" x2="1426" y2="260" stroke="black" /><text text-anchor="middle" x="1476" y="275" class="simple">23</text><line x1="1476" y1="245" x2="1476" y2="260" stroke="black" /><line x1="306" y1="230" x2="321" y2="230" stroke="black" /><text text-anchor="end" x="301" y="235" class="simple">Waiting for keyboard input</text><line x1="306" y1="190" x2="321" y2="190" stroke="black" /><text text-anchor="end" x="301" y="195" class="simple">Updating internal state</text><line x1="306" y1="150" x2="321" y2="150" stroke="black" /><text text-anchor="end" x="301" y="155" class="simple">Rendering</text><line x1="306" y1="110" x2="321" y2="110" stroke="black" /><text text-anchor="end" x="301" y="115" class="simple">Sending update to server</text><polyline points="326,230 376,230 426,230 476,230 526,230 526,190 576,190 576,150 626,150 626,110 676,110 676,230 726,230 776,230 826,230 876,230 926,230 926,190 976,190 976,150 1026,150 1026,110 1076,110 1076,230 1126,230 1126,190 1176,190 1176,150 1226,150 1226,110 1276,110 1276,230 1326,230 1376,230 1426,230 1476,230" fill="none" stroke="black" style="stroke-width:2px"/><rect x="316" y="295" width="1170" height="180" stroke="black" fill="none" /><text  x="20" y="385" class="lifeline-label">Client 2</text><text text-anchor="middle" x="326" y="500" class="simple">0</text><line x1="326" y1="470" x2="326" y2="485" stroke="black" /><text text-anchor="middle" x="376" y="500" class="simple">1</text><line x1="376" y1="470" x2="376" y2="485" stroke="black" /><text text-anchor="middle" x="426" y="500" class="simple">2</text><line x1="426" y1="470" x2="426" y2="485" stroke="black" /><text text-anchor="middle" x="476" y="500" class="simple">3</text><line x1="476" y1="470" x2="476" y2="485" stroke="black" /><text text-anchor="middle" x="526" y="500" class="simple">4</text><line x1="526" y1="470" x2="526" y2="485" stroke="black" /><text text-anchor="middle" x="576" y="500" class="simple">5</text><line x1="576" y1="470" x2="576" y2="485" stroke="black" /><text text-anchor="middle" x="626" y="500" class="simple">6</text><line x1="626" y1="470" x2="626" y2="485" stroke="black" /><text text-anchor="middle" x="676" y="500" class="simple">7</text><line x1="676" y1="470" x2="676" y2="485" stroke="black" /><text text-anchor="middle" x="726" y="500" class="simple">8</text><line x1="726" y1="470" x2="726" y2="485" stroke="black" /><text text-anchor="middle" x="776" y="500" class="simple">9</text><line x1="776" y1="470" x2="776" y2="485" stroke="black" /><text text-anchor="middle" x="826" y="500" class="simple">10</text><line x1="826" y1="470" x2="826" y2="485" stroke="black" /><text text-anchor="middle" x="876" y="500" class="simple">11</text><line x1="876" y1="470" x2="876" y2="485" stroke="black" /><text text-anchor="middle" x="926" y="500" class="simple">12</text><line x1="926" y1="470" x2="926" y2="485" stroke="black" /><text text-anchor="middle" x="976" y="500" class="simple">13</text><line x1="976" y1="470" x2="976" y2="485" stroke="black" /><text text-anchor="middle" x="1026" y="500" class="simple">14</text><line x1="1026" y1="470" x2="1026" y2="485" stroke="black" /><text text-anchor="middle" x="1076" y="500" class="simple">15</text><line x1="1076" y1="470" x2="1076" y2="485" stroke="black" /><text text-anchor="middle" x="1126" y="500" class="simple">16</text><line x1="1126" y1="470" x2="1126" y2="485" stroke="black" /><text text-anchor="middle" x="1176" y="500" class="simple">17</text><line x1="1176" y1="470" x2="1176" y2="485" stroke="black" /><text text-anchor="middle" x="1226" y="500" class="simple">18</text><line x1="1226" y1="470" x2="1226" y2="485" stroke="black" /><text text-anchor="middle" x="1276" y="500" class="simple">19</text><line x1="1276" y1="470" x2="1276" y2="485" stroke="black" /><text text-anchor="middle" x="1326" y="500" class="simple">20</text><line x1="1326" y1="470" x2="1326" y2="485" stroke="black" /><text text-anchor="middle" x="1376" y="500" class="simple">21</text><line x1="1376" y1="470" x2="1376" y2="485" stroke="black" /><text text-anchor="middle" x="1426" y="500" class="simple">22</text><line x1="1426" y1="470" x2="1426" y2="485" stroke="black" /><text text-anchor="middle" x="1476" y="500" class="simple">23</text><line x1="1476" y1="470" x2="1476" y2="485" stroke="black" /><line x1="306" y1="455" x2="321" y2="455" stroke="black" /><text text-anchor="end" x="301" y="460" class="simple">Waiting for keyboard input</text><line x1="306" y1="415" x2="321" y2="415" stroke="black" /><text text-anchor="end" x="301" y="420" class="simple">Updating internal state</text><line x1="306" y1="375" x2="321" y2="375" stroke="black" /><text text-anchor="end" x="301" y="380" class="simple">Rendering</text><line x1="306" y1="335" x2="321" y2="335" stroke="black" /><text text-anchor="end" x="301" y="340" class="simple">Sending update to server</text><polyline points="326,455 376,455 426,455 426,415 476,415 476,375 526,375 526,335 576,335 576,455 626,455 676,455 726,455 776,455 826,455 826,415 876,415 876,375 926,375 926,335 976,335 976,455 1026,455 1026,415 1076,415 1076,375 1126,375 1126,335 1176,335 1176,455 1226,455 1276,455 1326,455 1376,455 1426,455 1476,455" fill="none" stroke="black" style="stroke-width:2px"/><rect x="316" y="520" width="1170" height="140" stroke="black" fill="none" /><text  x="20" y="590" class="lifeline-label">Server</text><text text-anchor="middle" x="326" y="685" class="simple">0</text><line x1="326" y1="655" x2="326" y2="670" stroke="black" /><text text-anchor="middle" x="376" y="685" class="simple">1</text><line x1="376" y1="655" x2="376" y2="670" stroke="black" /><text text-anchor="middle" x="426" y="685" class="simple">2</text><line x1="426" y1="655" x2="426" y2="670" stroke="black" /><text text-anchor="middle" x="476" y="685" class="simple">3</text><line x1="476" y1="655" x2="476" y2="670" stroke="black" /><text text-anchor="middle" x="526" y="685" class="simple">4</text><line x1="526" y1="655" x2="526" y2="670" stroke="black" /><text text-anchor="middle" x="576" y="685" class="simple">5</text><line x1="576" y1="655" x2="576" y2="670" stroke="black" /><text text-anchor="middle" x="626" y="685" class="simple">6</text><line x1="626" y1="655" x2="626" y2="670" stroke="black" /><text text-anchor="middle" x="676" y="685" class="simple">7</text><line x1="676" y1="655" x2="676" y2="670" stroke="black" /><text text-anchor="middle" x="726" y="685" class="simple">8</text><line x1="726" y1="655" x2="726" y2="670" stroke="black" /><text text-anchor="middle" x="776" y="685" class="simple">9</text><line x1="776" y1="655" x2="776" y2="670" stroke="black" /><text text-anchor="middle" x="826" y="685" class="simple">10</text><line x1="826" y1="655" x2="826" y2="670" stroke="black" /><text text-anchor="middle" x="876" y="685" class="simple">11</text><line x1="876" y1="655" x2="876" y2="670" stroke="black" /><text text-anchor="middle" x="926" y="685" class="simple">12</text><line x1="926" y1="655" x2="926" y2="670" stroke="black" /><text text-anchor="middle" x="976" y="685" class="simple">13</text><line x1="976" y1="655" x2="976" y2="670" stroke="black" /><text text-anchor="middle" x="1026" y="685" class="simple">14</text><line x1="1026" y1="655" x2="1026" y2="670" stroke="black" /><text text-anchor="middle" x="1076" y="685" class="simple">15</text><line x1="1076" y1="655" x2="1076" y2="670" stroke="black" /><text text-anchor="middle" x="1126" y="685" class="simple">16</text><line x1="1126" y1="655" x2="1126" y2="670" stroke="black" /><text text-anchor="middle" x="1176" y="685" class="simple">17</text><line x1="1176" y1="655" x2="1176" y2="670" stroke="black" /><text text-anchor="middle" x="1226" y="685" class="simple">18</text><line x1="1226" y1="655" x2="1226" y2="670" stroke="black" /><text text-anchor="middle" x="1276" y="685" class="simple">19</text><line x1="1276" y1="655" x2="1276" y2="670" stroke="black" /><text text-anchor="middle" x="1326" y="685" class="simple">20</text><line x1="1326" y1="655" x2="1326" y2="670" stroke="black" /><text text-anchor="middle" x="1376" y="685" class="simple">21</text><line x1="1376" y1="655" x2="1376" y2="670" stroke="black" /><text text-anchor="middle" x="1426" y="685" class="simple">22</text><line x1="1426" y1="655" x2="1426" y2="670" stroke="black" /><text text-anchor="middle" x="1476" y="685" class="simple">23</text><line x1="1476" y1="655" x2="1476" y2="670" stroke="black" /><line x1="306" y1="640" x2="321" y2="640" stroke="black" /><text text-anchor="end" x="301" y="645" class="simple">Waiting for updates</text><line x1="306" y1="600" x2="321" y2="600" stroke="black" /><text text-anchor="end" x="301" y="605" class="simple">Computing state</text><line x1="306" y1="560" x2="321" y2="560" stroke="black" /><text text-anchor="end" x="301" y="565" class="simple">Updating clients</text><polyline points="326,640 376,640 426,640 476,640 526,640 576,640 576,600 626,600 626,640 676,640 676,600 726,600 726,640 776,640 826,640 826,560 876,560 926,560 926,640 976,640 976,600 1026,600 1026,640 1076,640 1076,600 1126,600 1126,640 1176,640 1176,600 1226,600 1226,640 1276,640 1276,600 1326,600 1326,560 1376,560 1426,560 1426,640 1476,640" fill="none" stroke="black" style="stroke-width:2px"/><polyline points="526,375 576,600" fill="none" stroke="black" marker-end="url(#arrow)" /><text text-anchor="end" x="512.5" y="359.25" class="simple">WS Update</text><polyline points="626,150 676,600" fill="none" stroke="black" marker-end="url(#arrow)" /><text text-anchor="end" x="614" y="132" class="simple">WS Update </text><polyline points="926,375 976,600" fill="none" stroke="black" marker-end="url(#arrow)" /><text text-anchor="end" x="912.5" y="359.25" class="simple">WS Update</text><polyline points="1026,150 1076,600" fill="none" stroke="black" marker-end="url(#arrow)" /><text text-anchor="end" x="1014" y="132" class="simple">WS Update </text><polyline points="1126,375 1176,600" fill="none" stroke="black" marker-end="url(#arrow)" /><text text-anchor="end" x="1163.5" y="588.75" class="simple">WS Update </text><polyline points="1226,150 1276,600" fill="none" stroke="black" marker-end="url(#arrow)" /><text text-anchor="end" x="1214" y="132" class="simple">WS Update </text></svg>
