<?xml version="1.0" encoding="UTF-8" standalone="no"?>
<svg xmlns="http://www.w3.org/2000/svg" width="1554" height="735">
<style>
  .title { font: bold 20px sans-serif }
  .lifeline-label { font: bold 17px sans-serif }
  .simple { font-family: sans-serif }
  text { white-space: pre }
</style>
<defs>
  <marker id="arrow" viewBox="0 0 20 20" refX="20" refY="10"
      markerWidth="12" markerHeight="12"
      orient="auto-start-reverse">
    <path d="M 0 0 L 20 10 L 0 20 z" />
  </marker>
</defs>
<polyline points="1552,2 1552,733 2,733 2,2 1552,2" fill="none" stroke="black" style="stroke-width:2px"/>
<polyline points="0,45 414,45 434,25 434,0" fill="none" stroke="black" style="stroke-width:2px"/>
<text  x="10" y="28" class="title">My Timing &amp; Testing Diagram</text><rect x="364" y="70" width="1170" height="190" stroke="black" fill="none" /><text  x="20" y="165" class="lifeline-label">Client 1</text><line x1="374" y1="255" x2="374" y2="270" stroke="black" /><line x1="424" y1="255" x2="424" y2="270" stroke="black" /><line x1="474" y1="255" x2="474" y2="270" stroke="black" /><line x1="524" y1="255" x2="524" y2="270" stroke="black" /><line x1="574" y1="255" x2="574" y2="270" stroke="black" /><line x1="624" y1="255" x2="624" y2="270" stroke="black" /><line x1="674" y1="255" x2="674" y2="270" stroke="black" /><line x1="724" y1="255" x2="724" y2="270" stroke="black" /><line x1="774" y1="255" x2="774" y2="270" stroke="black" /><line x1="824" y1="255" x2="824" y2="270" stroke="black" /><line x1="874" y1="255" x2="874" y2="270" stroke="black" /><line x1="924" y1="255" x2="924" y2="270" stroke="black" /><line x1="974" y1="255" x2="974" y2="270" stroke="black" /><line x1="1024" y1="255" x2="1024" y2="270" stroke="black" /><line x1="1074" y1="255" x2="1074" y2="270" stroke="black" /><line x1="1124" y1="255" x2="1124" y2="270" stroke="black" /><line x1="1174" y1="255" x2="1174" y2="270" stroke="black" /><line x1="1224" y1="255" x2="1224" y2="270" stroke="black" /><line x1="1274" y1="255" x2="1274" y2="270" stroke="black" /><line x1="1324" y1="255" x2="1324" y2="270" stroke="black" /><line x1="1374" y1="255" x2="1374" y2="270" stroke="black" /><line x1="1424" y1="255" x2="1424" y2="270" stroke="black" /><line x1="1474" y1="255" x2="1474" y2="270" stroke="black" /><line x1="1524" y1="255" x2="1524" y2="270" stroke="black" /><line x1="354" y1="240" x2="369" y2="240" stroke="black" /><text text-anchor="end" x="349" y="245" class="simple">Waiting for keyboard input</text><line x1="354" y1="200" x2="369" y2="200" stroke="black" /><text text-anchor="end" x="349" y="205" class="simple">Updating internal state</text><line x1="354" y1="160" x2="369" y2="160" stroke="black" /><text text-anchor="end" x="349" y="165" class="simple">Rendering</text><line x1="354" y1="120" x2="369" y2="120" stroke="black" /><text text-anchor="end" x="349" y="125" class="simple">Sending update to server</text><polyline points="374,240 424,240 474,240 524,240 574,240 574,200 624,200 624,160 674,160 674,120 724,120 724,240 774,240 824,240 874,240 924,240 974,240 974,200 1024,200 1024,160 1074,160 1074,120 1124,120 1124,240 1174,240 1174,200 1224,200 1224,160 1274,160 1274,120 1324,120 1324,240 1374,240 1424,240 1474,240 1524,240" fill="none" stroke="black" style="stroke-width:2px"/><rect x="364" y="305" width="1170" height="190" stroke="black" fill="none" /><text  x="20" y="400" class="lifeline-label">Client 2</text><line x1="374" y1="490" x2="374" y2="505" stroke="black" /><line x1="424" y1="490" x2="424" y2="505" stroke="black" /><line x1="474" y1="490" x2="474" y2="505" stroke="black" /><line x1="524" y1="490" x2="524" y2="505" stroke="black" /><line x1="574" y1="490" x2="574" y2="505" stroke="black" /><line x1="624" y1="490" x2="624" y2="505" stroke="black" /><line x1="674" y1="490" x2="674" y2="505" stroke="black" /><line x1="724" y1="490" x2="724" y2="505" stroke="black" /><line x1="774" y1="490" x2="774" y2="505" stroke="black" /><line x1="824" y1="490" x2="824" y2="505" stroke="black" /><line x1="874" y1="490" x2="874" y2="505" stroke="black" /><line x1="924" y1="490" x2="924" y2="505" stroke="black" /><line x1="974" y1="490" x2="974" y2="505" stroke="black" /><line x1="1024" y1="490" x2="1024" y2="505" stroke="black" /><line x1="1074" y1="490" x2="1074" y2="505" stroke="black" /><line x1="1124" y1="490" x2="1124" y2="505" stroke="black" /><line x1="1174" y1="490" x2="1174" y2="505" stroke="black" /><line x1="1224" y1="490" x2="1224" y2="505" stroke="black" /><line x1="1274" y1="490" x2="1274" y2="505" stroke="black" /><line x1="1324" y1="490" x2="1324" y2="505" stroke="black" /><line x1="1374" y1="490" x2="1374" y2="505" stroke="black" /><line x1="1424" y1="490" x2="1424" y2="505" stroke="black" /><line x1="1474" y1="490" x2="1474" y2="505" stroke="black" /><line x1="1524" y1="490" x2="1524" y2="505" stroke="black" /><line x1="354" y1="475" x2="369" y2="475" stroke="black" /><text text-anchor="end" x="349" y="480" class="simple">Waiting for keyboard input</text><line x1="354" y1="435" x2="369" y2="435" stroke="black" /><text text-anchor="end" x="349" y="440" class="simple">Updating internal state</text><line x1="354" y1="395" x2="369" y2="395" stroke="black" /><text text-anchor="end" x="349" y="400" class="simple">Rendering</text><line x1="354" y1="355" x2="369" y2="355" stroke="black" /><text text-anchor="end" x="349" y="360" class="simple">Sending update to server</text><polyline points="374,475 424,475 474,475 474,435 524,435 524,395 574,395 574,355 624,355 624,475 674,475 724,475 774,475 824,475 874,475 874,435 924,435 924,395 974,395 974,355 1024,355 1024,475 1074,475 1074,435 1124,435 1124,395 1174,395 1174,355 1224,355 1224,475 1274,475 1324,475 1374,475 1424,475 1474,475 1524,475" fill="none" stroke="black" style="stroke-width:2px"/><rect x="364" y="540" width="1170" height="150" stroke="black" fill="none" /><text  x="20" y="615" class="lifeline-label">Server</text><line x1="374" y1="685" x2="374" y2="700" stroke="black" /><line x1="424" y1="685" x2="424" y2="700" stroke="black" /><line x1="474" y1="685" x2="474" y2="700" stroke="black" /><line x1="524" y1="685" x2="524" y2="700" stroke="black" /><line x1="574" y1="685" x2="574" y2="700" stroke="black" /><line x1="624" y1="685" x2="624" y2="700" stroke="black" /><line x1="674" y1="685" x2="674" y2="700" stroke="black" /><line x1="724" y1="685" x2="724" y2="700" stroke="black" /><line x1="774" y1="685" x2="774" y2="700" stroke="black" /><line x1="824" y1="685" x2="824" y2="700" stroke="black" /><line x1="874" y1="685" x2="874" y2="700" stroke="black" /><line x1="924" y1="685" x2="924" y2="700" stroke="black" /><line x1="974" y1="685" x2="974" y2="700" stroke="black" /><line x1="1024" y1="685" x2="1024" y2="700" stroke="black" /><line x1="1074" y1="685" x2="1074" y2="700" stroke="black" /><line x1="1124" y1="685" x2="1124" y2="700" stroke="black" /><line x1="1174" y1="685" x2="1174" y2="700" stroke="black" /><line x1="1224" y1="685" x2="1224" y2="700" stroke="black" /><line x1="1274" y1="685" x2="1274" y2="700" stroke="black" /><line x1="1324" y1="685" x2="1324" y2="700" stroke="black" /><line x1="1374" y1="685" x2="1374" y2="700" stroke="black" /><line x1="1424" y1="685" x2="1424" y2="700" stroke="black" /><line x1="1474" y1="685" x2="1474" y2="700" stroke="black" /><line x1="1524" y1="685" x2="1524" y2="700" stroke="black" /><line x1="354" y1="670" x2="369" y2="670" stroke="black" /><text text-anchor="end" x="349" y="675" class="simple">Waiting for updates</text><line x1="354" y1="630" x2="369" y2="630" stroke="black" /><text text-anchor="end" x="349" y="635" class="simple">Computing state</text><line x1="354" y1="590" x2="369" y2="590" stroke="black" /><text text-anchor="end" x="349" y="595" class="simple">Updating clients</text><polyline points="374,670 424,670 474,670 524,670 574,670 624,670 624,630 674,630 674,670 724,670 724,630 774,630 774,670 824,670 874,670 874,590 924,590 974,590 974,670 1024,670 1024,630 1074,630 1074,670 1124,670 1124,630 1174,630 1174,670 1224,670 1224,630 1274,630 1274,670 1324,670 1324,630 1374,630 1374,590 1424,590 1474,590 1474,670 1524,670" fill="none" stroke="black" style="stroke-width:2px"/><polyline points="574,395 624,630" fill="none" stroke="black" marker-end="url(#arrow)" /><text text-anchor="end" x="560.5" y="378.55" class="simple">WS Update</text><polyline points="674,160 724,630" fill="none" stroke="black" marker-end="url(#arrow)" /><text text-anchor="end" x="662" y="141.2" class="simple">WS Update </text><polyline points="974,395 1024,630" fill="none" stroke="black" marker-end="url(#arrow)" /><text text-anchor="end" x="960.5" y="378.55" class="simple">WS Update</text><polyline points="1074,160 1124,630" fill="none" stroke="black" marker-end="url(#arrow)" /><text text-anchor="end" x="1062" y="141.2" class="simple">WS Update </text><polyline points="1174,395 1224,630" fill="none" stroke="black" marker-end="url(#arrow)" /><text text-anchor="end" x="1211.5" y="618.25" class="simple">WS Update </text><polyline points="1274,160 1324,630" fill="none" stroke="black" marker-end="url(#arrow)" /><text text-anchor="end" x="1262" y="141.2" class="simple">WS Update </text><text text-anchor="middle" x="374" y="715" class="simple">0</text><text text-anchor="middle" x="424" y="715" class="simple">1</text><text text-anchor="middle" x="474" y="715" class="simple">2</text><text text-anchor="middle" x="524" y="715" class="simple">3</text><text text-anchor="middle" x="574" y="715" class="simple">4</text><text text-anchor="middle" x="624" y="715" class="simple">5</text><text text-anchor="middle" x="674" y="715" class="simple">6</text><text text-anchor="middle" x="724" y="715" class="simple">7</text><text text-anchor="middle" x="774" y="715" class="simple">8</text><text text-anchor="middle" x="824" y="715" class="simple">9</text><text text-anchor="middle" x="874" y="715" class="simple">10</text><text text-anchor="middle" x="924" y="715" class="simple">11</text><text text-anchor="middle" x="974" y="715" class="simple">12</text><text text-anchor="middle" x="1024" y="715" class="simple">13</text><text text-anchor="middle" x="1074" y="715" class="simple">14</text><text text-anchor="middle" x="1124" y="715" class="simple">15</text><text text-anchor="middle" x="1174" y="715" class="simple">16</text><text text-anchor="middle" x="1224" y="715" class="simple">17</text><text text-anchor="middle" x="1274" y="715" class="simple">18</text><text text-anchor="middle" x="1324" y="715" class="simple">19</text><text text-anchor="middle" x="1374" y="715" class="simple">20</text><text text-anchor="middle" x="1424" y="715" class="simple">21</text><text text-anchor="middle" x="1474" y="715" class="simple">22</text><text text-anchor="middle" x="1524" y="715" class="simple">23</text></svg>
