<?xml version="1.0" encoding="UTF-8" standalone="no"?>
<svg xmlns="http://www.w3.org/2000/svg" width="1188" height="790">
<style>
  .title { font: bold 20px sans-serif }
  .lifeline-label { font: bold 17px sans-serif }
  .simple { font-family: sans-serif }
  text { white-space: pre }
</style>
<defs>
  <marker id="arrow" viewBox="0 0 20 20" refX="20" refY="10"
      markerWidth="12" markerHeight="12"
      orient="auto-start-reverse">
    <path d="M 0 0 L 20 10 L 0 20 z" />
  </marker>
</defs>
<polyline points="1186,2 1186,788 2,788 2,2 1186,2" fill="none" stroke="black" style="stroke-width:2px"/>
<polyline points="0,45 176,45 196,25 196,0" fill="none" stroke="black" style="stroke-width:2px"/>
<text  x="10" y="28" class="title">Website Timing</text><rect x="298" y="70" width="870" height="150" stroke="black" fill="none" /><text  x="20" y="145" class="lifeline-label">Web Server</text><line x1="308" y1="215" x2="308" y2="230" stroke="black" /><line x1="358" y1="215" x2="358" y2="230" stroke="black" /><line x1="408" y1="215" x2="408" y2="230" stroke="black" /><line x1="458" y1="215" x2="458" y2="230" stroke="black" /><line x1="508" y1="215" x2="508" y2="230" stroke="black" /><line x1="558" y1="215" x2="558" y2="230" stroke="black" /><line x1="608" y1="215" x2="608" y2="230" stroke="black" /><line x1="658" y1="215" x2="658" y2="230" stroke="black" /><line x1="708" y1="215" x2="708" y2="230" stroke="black" /><line x1="758" y1="215" x2="758" y2="230" stroke="black" /><line x1="808" y1="215" x2="808" y2="230" stroke="black" /><line x1="858" y1="215" x2="858" y2="230" stroke="black" /><line x1="908" y1="215" x2="908" y2="230" stroke="black" /><line x1="958" y1="215" x2="958" y2="230" stroke="black" /><line x1="1008" y1="215" x2="1008" y2="230" stroke="black" /><line x1="1058" y1="215" x2="1058" y2="230" stroke="black" /><line x1="1108" y1="215" x2="1108" y2="230" stroke="black" /><line x1="1158" y1="215" x2="1158" y2="230" stroke="black" /><line x1="288" y1="200" x2="303" y2="200" stroke="black" /><text text-anchor="end" x="283" y="205" class="simple">Waiting</text><line x1="288" y1="160" x2="303" y2="160" stroke="black" /><text text-anchor="end" x="283" y="165" class="simple">Processing</text><line x1="288" y1="120" x2="303" y2="120" stroke="black" /><text text-anchor="end" x="283" y="125" class="simple">Sending Response</text><polyline points="308,200 358,200 408,200 458,200 508,200 558,200 608,200 658,200 708,200 758,200 758,160 808,160 858,160 858,120 908,120 958,120 958,200 1008,200 1058,200 1108,200 1158,200" fill="none" stroke="black" style="stroke-width:2px"/><rect x="298" y="265" width="870" height="110" stroke="black" fill="none" /><text  x="20" y="320" class="lifeline-label">DNS Resolver</text><line x1="308" y1="370" x2="308" y2="385" stroke="black" /><line x1="358" y1="370" x2="358" y2="385" stroke="black" /><line x1="408" y1="370" x2="408" y2="385" stroke="black" /><line x1="458" y1="370" x2="458" y2="385" stroke="black" /><line x1="508" y1="370" x2="508" y2="385" stroke="black" /><line x1="558" y1="370" x2="558" y2="385" stroke="black" /><line x1="608" y1="370" x2="608" y2="385" stroke="black" /><line x1="658" y1="370" x2="658" y2="385" stroke="black" /><line x1="708" y1="370" x2="708" y2="385" stroke="black" /><line x1="758" y1="370" x2="758" y2="385" stroke="black" /><line x1="808" y1="370" x2="808" y2="385" stroke="black" /><line x1="858" y1="370" x2="858" y2="385" stroke="black" /><line x1="908" y1="370" x2="908" y2="385" stroke="black" /><line x1="958" y1="370" x2="958" y2="385" stroke="black" /><line x1="1008" y1="370" x2="1008" y2="385" stroke="black" /><line x1="1058" y1="370" x2="1058" y2="385" stroke="black" /><line x1="1108" y1="370" x2="1108" y2="385" stroke="black" /><line x1="1158" y1="370" x2="1158" y2="385" stroke="black" /><line x1="288" y1="355" x2="303" y2="355" stroke="black" /><text text-anchor="end" x="283" y="360" class="simple">Idle</text><line x1="288" y1="315" x2="303" y2="315" stroke="black" /><text text-anchor="end" x="283" y="320" class="simple">Processing</text><polyline points="308,355 358,355 408,355 458,355 508,355 508,315 558,315 608,315 608,355 658,355 708,355 758,355 808,355 858,355 908,355 958,355 1008,355 1058,355 1108,355 1158,355" fill="none" stroke="black" style="stroke-width:2px"/><rect x="298" y="420" width="870" height="150" stroke="black" fill="none" /><text  x="20" y="495" class="lifeline-label">Web Browser</text><line x1="308" y1="565" x2="308" y2="580" stroke="black" /><line x1="358" y1="565" x2="358" y2="580" stroke="black" /><line x1="408" y1="565" x2="408" y2="580" stroke="black" /><line x1="458" y1="565" x2="458" y2="580" stroke="black" /><line x1="508" y1="565" x2="508" y2="580" stroke="black" /><line x1="558" y1="565" x2="558" y2="580" stroke="black" /><line x1="608" y1="565" x2="608" y2="580" stroke="black" /><line x1="658" y1="565" x2="658" y2="580" stroke="black" /><line x1="708" y1="565" x2="708" y2="580" stroke="black" /><line x1="758" y1="565" x2="758" y2="580" stroke="black" /><line x1="808" y1="565" x2="808" y2="580" stroke="black" /><line x1="858" y1="565" x2="858" y2="580" stroke="black" /><line x1="908" y1="565" x2="908" y2="580" stroke="black" /><line x1="958" y1="565" x2="958" y2="580" stroke="black" /><line x1="1008" y1="565" x2="1008" y2="580" stroke="black" /><line x1="1058" y1="565" x2="1058" y2="580" stroke="black" /><line x1="1108" y1="565" x2="1108" y2="580" stroke="black" /><line x1="1158" y1="565" x2="1158" y2="580" stroke="black" /><line x1="288" y1="550" x2="303" y2="550" stroke="black" /><text text-anchor="end" x="283" y="555" class="simple">Idle</text><line x1="288" y1="510" x2="303" y2="510" stroke="black" /><text text-anchor="end" x="283" y="515" class="simple">Processing</text><line x1="288" y1="470" x2="303" y2="470" stroke="black" /><text text-anchor="end" x="283" y="475" class="simple">Waiting</text><polyline points="308,550 358,550 408,550 408,510 458,510 458,470 508,470 558,470 608,470 658,470 658,510 708,510 758,510 808,510 808,470 858,470 908,470 908,510 958,510 1008,510 1008,550 1058,550 1108,550 1158,550" fill="none" stroke="black" style="stroke-width:2px"/><rect x="298" y="615" width="870" height="130" stroke="black" fill="none" /><text  x="20" y="680" class="lifeline-label">Web User</text><line x1="308" y1="740" x2="308" y2="755" stroke="black" /><line x1="358" y1="740" x2="358" y2="755" stroke="black" /><line x1="408" y1="740" x2="408" y2="755" stroke="black" /><line x1="458" y1="740" x2="458" y2="755" stroke="black" /><line x1="508" y1="740" x2="508" y2="755" stroke="black" /><line x1="558" y1="740" x2="558" y2="755" stroke="black" /><line x1="608" y1="740" x2="608" y2="755" stroke="black" /><line x1="658" y1="740" x2="658" y2="755" stroke="black" /><line x1="708" y1="740" x2="708" y2="755" stroke="black" /><line x1="758" y1="740" x2="758" y2="755" stroke="black" /><line x1="808" y1="740" x2="808" y2="755" stroke="black" /><line x1="858" y1="740" x2="858" y2="755" stroke="black" /><line x1="908" y1="740" x2="908" y2="755" stroke="black" /><line x1="958" y1="740" x2="958" y2="755" stroke="black" /><line x1="1008" y1="740" x2="1008" y2="755" stroke="black" /><line x1="1058" y1="740" x2="1058" y2="755" stroke="black" /><line x1="1108" y1="740" x2="1108" y2="755" stroke="black" /><line x1="1158" y1="740" x2="1158" y2="755" stroke="black" /><line x1="288" y1="685" x2="303" y2="685" stroke="black" /><text text-anchor="end" x="283" y="690" class="simple">State</text><text text-anchor="middle" x="358" y="690" class="simple">Idle</text><text text-anchor="middle" x="733" y="690" class="simple">Waiting</text><text text-anchor="middle" x="1108" y="690" class="simple">Viewing</text><polyline points="308,665 391.3333333333333,665 408,685 424.6666666666667,665 1041.3333333333333,665 1058,685 1074.6666666666667,665 1158,665" fill="none" stroke="black" style="stroke-width:2px"/><polyline points="308,705 391.3333333333333,705 408,685 424.6666666666667,705 1041.3333333333333,705 1058,685 1074.6666666666667,705 1158,705" fill="none" stroke="black" style="stroke-width:2px"/><polyline points="508,300 608,300" fill="none" stroke="black" marker-start="url(#arrow)" marker-end="url(#arrow)" /><line x1="508" y1="293" x2="508" y2="307" stroke="black" /><line x1="608" y1="293" x2="608" y2="307" stroke="black" /><text text-anchor="middle" x="558" y="290" class="simple">{0..400 ms}</text><polyline points="758,105 958,105" fill="none" stroke="black" marker-start="url(#arrow)" marker-end="url(#arrow)" /><line x1="758" y1="98" x2="758" y2="112" stroke="black" /><line x1="958" y1="98" x2="958" y2="112" stroke="black" /><text text-anchor="middle" x="858" y="95" class="simple">{200..800 ms}</text><polyline points="908,455 1008,455" fill="none" stroke="black" marker-start="url(#arrow)" marker-end="url(#arrow)" /><line x1="908" y1="448" x2="908" y2="462" stroke="black" /><line x1="1008" y1="448" x2="1008" y2="462" stroke="black" /><text text-anchor="middle" x="958" y="445" class="simple">{100..500 ms}</text><polyline points="408,685 408,550" fill="none" stroke="black" marker-end="url(#arrow)" /><text text-anchor="start" x="418" y="631" class="simple">URL</text><polyline points="458,510 508,355" fill="none" stroke="black" marker-end="url(#arrow)" /><text text-anchor="end" x="467" y="451.1" class="simple">Resolve URL</text><polyline points="608,315 658,470" fill="none" stroke="black" stroke-dasharray="10" marker-end="url(#arrow)" /><polyline points="708,510 758,200" fill="none" stroke="black" marker-end="url(#arrow)" /><text text-anchor="start" x="727.5" y="451.1" class="simple">HTTP Request</text><polyline points="858,160 908,510" fill="none" stroke="black" stroke-dasharray="10" marker-end="url(#arrow)" /><text text-anchor="start" x="890.5" y="317.5" class="simple">HTTP Response</text><polyline points="958,510 1058,685" fill="none" stroke="black" stroke-dasharray="10" marker-end="url(#arrow)" /><text text-anchor="end" x="1025" y="644.75" class="simple">Show Page</text><text text-anchor="middle" x="308" y="770" class="simple">0</text><text text-anchor="middle" x="358" y="770" class="simple">1</text><text text-anchor="middle" x="408" y="770" class="simple">2</text><text text-anchor="middle" x="458" y="770" class="simple">3</text><text text-anchor="middle" x="508" y="770" class="simple">4</text><text text-anchor="middle" x="558" y="770" class="simple">5</text><text text-anchor="middle" x="608" y="770" class="simple">6</text><text text-anchor="middle" x="658" y="770" class="simple">7</text><text text-anchor="middle" x="708" y="770" class="simple">8</text><text text-anchor="middle" x="758" y="770" class="simple">9</text><text text-anchor="middle" x="808" y="770" class="simple">10</text><text text-anchor="middle" x="858" y="770" class="simple">11</text><text text-anchor="middle" x="908" y="770" class="simple">12</text><text text-anchor="middle" x="958" y="770" class="simple">13</text><text text-anchor="middle" x="1008" y="770" class="simple">14</text><text text-anchor="middle" x="1058" y="770" class="simple">15</text><text text-anchor="middle" x="1108" y="770" class="simple">16</text><text text-anchor="middle" x="1158" y="770" class="simple">17</text></svg>
