<?xml version="1.0" encoding="UTF-8" standalone="no"?>
<svg xmlns="http://www.w3.org/2000/svg" width="1186" height="750" viewBox="0 0 1186 750">
<style>
  .title { font: bold 20px sans-serif }
  .lifeline-label { font: bold 17px sans-serif }
  .simple { font-family: sans-serif }
  text { white-space: pre }
</style>
<defs>
  <marker id="arrow" viewBox="0 0 20 20" refX="20" refY="10"
      markerWidth="12" markerHeight="12"
      orient="auto-start-reverse">
    <path d="M 0 0 L 20 10 L 0 20 z" />
  </marker>
</defs>
<rect width="1186" height="750" fill="white" />
<polyline points="1184,2 1184,748 2,748 2,2 1184,2" fill="none" stroke="black" style="stroke-width:2px"/>
<polyline points="0,45 176,45 196,25 196,0" fill="none" stroke="black" style="stroke-width:2px"/>
<text  x="10" y="30" class="title">Website Timing</text><rect x="296" y="70" width="870" height="140" stroke="black" fill="none" /><text  x="20" y="140" class="lifeline-label">Web Server</text><text text-anchor="middle" x="306" y="235" class="simple">0</text><line x1="306" y1="205" x2="306" y2="220" stroke="black" /><text text-anchor="middle" x="356" y="235" class="simple">1</text><line x1="356" y1="205" x2="356" y2="220" stroke="black" /><text text-anchor="middle" x="406" y="235" class="simple">2</text><line x1="406" y1="205" x2="406" y2="220" stroke="black" /><text text-anchor="middle" x="456" y="235" class="simple">3</text><line x1="456" y1="205" x2="456" y2="220" stroke="black" /><text text-anchor="middle" x="506" y="235" class="simple">4</text><line x1="506" y1="205" x2="506" y2="220" stroke="black" /><text text-anchor="middle" x="556" y="235" class="simple">5</text><line x1="556" y1="205" x2="556" y2="220" stroke="black" /><text text-anchor="middle" x="606" y="235" class="simple">6</text><line x1="606" y1="205" x2="606" y2="220" stroke="black" /><text text-anchor="middle" x="656" y="235" class="simple">7</text><line x1="656" y1="205" x2="656" y2="220" stroke="black" /><text text-anchor="middle" x="706" y="235" class="simple">8</text><line x1="706" y1="205" x2="706" y2="220" stroke="black" /><text text-anchor="middle" x="756" y="235" class="simple">9</text><line x1="756" y1="205" x2="756" y2="220" stroke="black" /><text text-anchor="middle" x="806" y="235" class="simple">10</text><line x1="806" y1="205" x2="806" y2="220" stroke="black" /><text text-anchor="middle" x="856" y="235" class="simple">11</text><line x1="856" y1="205" x2="856" y2="220" stroke="black" /><text text-anchor="middle" x="906" y="235" class="simple">12</text><line x1="906" y1="205" x2="906" y2="220" stroke="black" /><text text-anchor="middle" x="956" y="235" class="simple">13</text><line x1="956" y1="205" x2="956" y2="220" stroke="black" /><text text-anchor="middle" x="1006" y="235" class="simple">14</text><line x1="1006" y1="205" x2="1006" y2="220" stroke="black" /><text text-anchor="middle" x="1056" y="235" class="simple">15</text><line x1="1056" y1="205" x2="1056" y2="220" stroke="black" /><text text-anchor="middle" x="1106" y="235" class="simple">16</text><line x1="1106" y1="205" x2="1106" y2="220" stroke="black" /><text text-anchor="middle" x="1156" y="235" class="simple">17</text><line x1="1156" y1="205" x2="1156" y2="220" stroke="black" /><line x1="286" y1="190" x2="301" y2="190" stroke="black" /><text text-anchor="end" x="281" y="195" class="simple">Waiting</text><line x1="286" y1="150" x2="301" y2="150" stroke="black" /><text text-anchor="end" x="281" y="155" class="simple">Processing</text><line x1="286" y1="110" x2="301" y2="110" stroke="black" /><text text-anchor="end" x="281" y="115" class="simple">Sending Response</text><polyline points="306,190 356,190 406,190 456,190 506,190 556,190 606,190 656,190 706,190 756,190 756,150 806,150 856,150 856,110 906,110 956,110 956,190 1006,190 1056,190 1106,190 1156,190" fill="none" stroke="black" style="stroke-width:2px"/><rect x="296" y="255" width="870" height="100" stroke="black" fill="none" /><text  x="20" y="305" class="lifeline-label">DNS Resolver</text><text text-anchor="middle" x="306" y="380" class="simple">0</text><line x1="306" y1="350" x2="306" y2="365" stroke="black" /><text text-anchor="middle" x="356" y="380" class="simple">1</text><line x1="356" y1="350" x2="356" y2="365" stroke="black" /><text text-anchor="middle" x="406" y="380" class="simple">2</text><line x1="406" y1="350" x2="406" y2="365" stroke="black" /><text text-anchor="middle" x="456" y="380" class="simple">3</text><line x1="456" y1="350" x2="456" y2="365" stroke="black" /><text text-anchor="middle" x="506" y="380" class="simple">4</text><line x1="506" y1="350" x2="506" y2="365" stroke="black" /><text text-anchor="middle" x="556" y="380" class="simple">5</text><line x1="556" y1="350" x2="556" y2="365" stroke="black" /><text text-anchor="middle" x="606" y="380" class="simple">6</text><line x1="606" y1="350" x2="606" y2="365" stroke="black" /><text text-anchor="middle" x="656" y="380" class="simple">7</text><line x1="656" y1="350" x2="656" y2="365" stroke="black" /><text text-anchor="middle" x="706" y="380" class="simple">8</text><line x1="706" y1="350" x2="706" y2="365" stroke="black" /><text text-anchor="middle" x="756" y="380" class="simple">9</text><line x1="756" y1="350" x2="756" y2="365" stroke="black" /><text text-anchor="middle" x="806" y="380" class="simple">10</text><line x1="806" y1="350" x2="806" y2="365" stroke="black" /><text text-anchor="middle" x="856" y="380" class="simple">11</text><line x1="856" y1="350" x2="856" y2="365" stroke="black" /><text text-anchor="middle" x="906" y="380" class="simple">12</text><line x1="906" y1="350" x2="906" y2="365" stroke="black" /><text text-anchor="middle" x="956" y="380" class="simple">13</text><line x1="956" y1="350" x2="956" y2="365" stroke="black" /><text text-anchor="middle" x="1006" y="380" class="simple">14</text><line x1="1006" y1="350" x2="1006" y2="365" stroke="black" /><text text-anchor="middle" x="1056" y="380" class="simple">15</text><line x1="1056" y1="350" x2="1056" y2="365" stroke="black" /><text text-anchor="middle" x="1106" y="380" class="simple">16</text><line x1="1106" y1="350" x2="1106" y2="365" stroke="black" /><text text-anchor="middle" x="1156" y="380" class="simple">17</text><line x1="1156" y1="350" x2="1156" y2="365" stroke="black" /><line x1="286" y1="335" x2="301" y2="335" stroke="black" /><text text-anchor="end" x="281" y="340" class="simple">Idle</text><line x1="286" y1="295" x2="301" y2="295" stroke="black" /><text text-anchor="end" x="281" y="300" class="simple">Processing</text><polyline points="306,335 356,335 406,335 456,335 506,335 506,295 556,295 606,295 606,335 656,335 706,335 756,335 806,335 856,335 906,335 956,335 1006,335 1056,335 1106,335 1156,335" fill="none" stroke="black" style="stroke-width:2px"/><rect x="296" y="400" width="870" height="140" stroke="black" fill="none" /><text  x="20" y="470" class="lifeline-label">Web Browser</text><text text-anchor="middle" x="306" y="565" class="simple">0</text><line x1="306" y1="535" x2="306" y2="550" stroke="black" /><text text-anchor="middle" x="356" y="565" class="simple">1</text><line x1="356" y1="535" x2="356" y2="550" stroke="black" /><text text-anchor="middle" x="406" y="565" class="simple">2</text><line x1="406" y1="535" x2="406" y2="550" stroke="black" /><text text-anchor="middle" x="456" y="565" class="simple">3</text><line x1="456" y1="535" x2="456" y2="550" stroke="black" /><text text-anchor="middle" x="506" y="565" class="simple">4</text><line x1="506" y1="535" x2="506" y2="550" stroke="black" /><text text-anchor="middle" x="556" y="565" class="simple">5</text><line x1="556" y1="535" x2="556" y2="550" stroke="black" /><text text-anchor="middle" x="606" y="565" class="simple">6</text><line x1="606" y1="535" x2="606" y2="550" stroke="black" /><text text-anchor="middle" x="656" y="565" class="simple">7</text><line x1="656" y1="535" x2="656" y2="550" stroke="black" /><text text-anchor="middle" x="706" y="565" class="simple">8</text><line x1="706" y1="535" x2="706" y2="550" stroke="black" /><text text-anchor="middle" x="756" y="565" class="simple">9</text><line x1="756" y1="535" x2="756" y2="550" stroke="black" /><text text-anchor="middle" x="806" y="565" class="simple">10</text><line x1="806" y1="535" x2="806" y2="550" stroke="black" /><text text-anchor="middle" x="856" y="565" class="simple">11</text><line x1="856" y1="535" x2="856" y2="550" stroke="black" /><text text-anchor="middle" x="906" y="565" class="simple">12</text><line x1="906" y1="535" x2="906" y2="550" stroke="black" /><text text-anchor="middle" x="956" y="565" class="simple">13</text><line x1="956" y1="535" x2="956" y2="550" stroke="black" /><text text-anchor="middle" x="1006" y="565" class="simple">14</text><line x1="1006" y1="535" x2="1006" y2="550" stroke="black" /><text text-anchor="middle" x="1056" y="565" class="simple">15</text><line x1="1056" y1="535" x2="1056" y2="550" stroke="black" /><text text-anchor="middle" x="1106" y="565" class="simple">16</text><line x1="1106" y1="535" x2="1106" y2="550" stroke="black" /><text text-anchor="middle" x="1156" y="565" class="simple">17</text><line x1="1156" y1="535" x2="1156" y2="550" stroke="black" /><line x1="286" y1="520" x2="301" y2="520" stroke="black" /><text text-anchor="end" x="281" y="525" class="simple">Idle</text><line x1="286" y1="480" x2="301" y2="480" stroke="black" /><text text-anchor="end" x="281" y="485" class="simple">Processing</text><line x1="286" y1="440" x2="301" y2="440" stroke="black" /><text text-anchor="end" x="281" y="445" class="simple">Waiting</text><polyline points="306,520 356,520 406,520 406,480 456,480 456,440 506,440 556,440 606,440 656,440 656,480 706,480 756,480 806,480 806,440 856,440 906,440 906,480 956,480 1006,480 1006,520 1056,520 1106,520 1156,520" fill="none" stroke="black" style="stroke-width:2px"/><rect x="296" y="585" width="870" height="120" stroke="black" fill="none" /><text  x="20" y="645" class="lifeline-label">Web User</text><text text-anchor="middle" x="306" y="730" class="simple">0</text><line x1="306" y1="700" x2="306" y2="715" stroke="black" /><text text-anchor="middle" x="356" y="730" class="simple">1</text><line x1="356" y1="700" x2="356" y2="715" stroke="black" /><text text-anchor="middle" x="406" y="730" class="simple">2</text><line x1="406" y1="700" x2="406" y2="715" stroke="black" /><text text-anchor="middle" x="456" y="730" class="simple">3</text><line x1="456" y1="700" x2="456" y2="715" stroke="black" /><text text-anchor="middle" x="506" y="730" class="simple">4</text><line x1="506" y1="700" x2="506" y2="715" stroke="black" /><text text-anchor="middle" x="556" y="730" class="simple">5</text><line x1="556" y1="700" x2="556" y2="715" stroke="black" /><text text-anchor="middle" x="606" y="730" class="simple">6</text><line x1="606" y1="700" x2="606" y2="715" stroke="black" /><text text-anchor="middle" x="656" y="730" class="simple">7</text><line x1="656" y1="700" x2="656" y2="715" stroke="black" /><text text-anchor="middle" x="706" y="730" class="simple">8</text><line x1="706" y1="700" x2="706" y2="715" stroke="black" /><text text-anchor="middle" x="756" y="730" class="simple">9</text><line x1="756" y1="700" x2="756" y2="715" stroke="black" /><text text-anchor="middle" x="806" y="730" class="simple">10</text><line x1="806" y1="700" x2="806" y2="715" stroke="black" /><text text-anchor="middle" x="856" y="730" class="simple">11</text><line x1="856" y1="700" x2="856" y2="715" stroke="black" /><text text-anchor="middle" x="906" y="730" class="simple">12</text><line x1="906" y1="700" x2="906" y2="715" stroke="black" /><text text-anchor="middle" x="956" y="730" class="simple">13</text><line x1="956" y1="700" x2="956" y2="715" stroke="black" /><text text-anchor="middle" x="1006" y="730" class="simple">14</text><line x1="1006" y1="700" x2="1006" y2="715" stroke="black" /><text text-anchor="middle" x="1056" y="730" class="simple">15</text><line x1="1056" y1="700" x2="1056" y2="715" stroke="black" /><text text-anchor="middle" x="1106" y="730" class="simple">16</text><line x1="1106" y1="700" x2="1106" y2="715" stroke="black" /><text text-anchor="middle" x="1156" y="730" class="simple">17</text><line x1="1156" y1="700" x2="1156" y2="715" stroke="black" /><line x1="286" y1="645" x2="301" y2="645" stroke="black" /><text text-anchor="end" x="281" y="650" class="simple">State</text><text text-anchor="middle" x="356" y="650" class="simple">Idle</text><text text-anchor="middle" x="731" y="650" class="simple">Waiting</text><text text-anchor="middle" x="1106" y="650" class="simple">Viewing</text><polyline points="306,625 392.6666666666667,625 406,645 419.3333333333333,625 1042.6666666666667,625 1056,645 1069.3333333333333,625 1156,625" fill="none" stroke="black" style="stroke-width:2px"/><polyline points="306,665 392.6666666666667,665 406,645 419.3333333333333,665 1042.6666666666667,665 1056,645 1069.3333333333333,665 1156,665" fill="none" stroke="black" style="stroke-width:2px"/><polyline points="506,280 606,280" fill="none" stroke="black" marker-start="url(#arrow)" marker-end="url(#arrow)" /><line x1="506" y1="273" x2="506" y2="287" stroke="black" /><line x1="606" y1="273" x2="606" y2="287" stroke="black" /><text text-anchor="middle" x="556" y="270" class="simple">{0..400 ms}</text><polyline points="756,95 956,95" fill="none" stroke="black" marker-start="url(#arrow)" marker-end="url(#arrow)" /><line x1="756" y1="88" x2="756" y2="102" stroke="black" /><line x1="956" y1="88" x2="956" y2="102" stroke="black" /><text text-anchor="middle" x="856" y="85" class="simple">{200..800 ms}</text><polyline points="906,425 1006,425" fill="none" stroke="black" marker-start="url(#arrow)" marker-end="url(#arrow)" /><line x1="906" y1="418" x2="906" y2="432" stroke="black" /><line x1="1006" y1="418" x2="1006" y2="432" stroke="black" /><text text-anchor="middle" x="956" y="415" class="simple">{100..500 ms}</text><polyline points="406,645 406,520" fill="none" stroke="black" marker-end="url(#arrow)" /><text text-anchor="start" x="416" y="595" class="simple">URL</text><polyline points="456,480 506,335" fill="none" stroke="black" marker-end="url(#arrow)" /><text text-anchor="end" x="465" y="424.9" class="simple">Resolve URL</text><polyline points="606,295 656,440" fill="none" stroke="black" stroke-dasharray="10" marker-end="url(#arrow)" /><polyline points="706,480 756,190" fill="none" stroke="black" marker-end="url(#arrow)" /><text text-anchor="start" x="725.5" y="424.9" class="simple">HTTP Request</text><polyline points="856,150 906,480" fill="none" stroke="black" stroke-dasharray="10" marker-end="url(#arrow)" /><text text-anchor="start" x="888.5" y="298.5" class="simple">HTTP Response</text><polyline points="956,480 1056,645" fill="none" stroke="black" stroke-dasharray="10" marker-end="url(#arrow)" /><text text-anchor="end" x="1023" y="607.05" class="simple">Show Page</text></svg>
