<?xml version="1.0" encoding="UTF-8" standalone="no"?>
<svg xmlns="http://www.w3.org/2000/svg" width="1240" height="790" viewBox="0 0 1240 790">
<style>
  .title { font: bold 20px sans-serif }
  .lifeline-label { font: bold 17px sans-serif }
  .simple { font-family: sans-serif }
  text { white-space: pre }
</style>
<defs>
  <marker id="arrow" viewBox="0 0 20 20" refX="20" refY="10"
      markerWidth="12" markerHeight="12"
      orient="auto-start-reverse">
    <path d="M 0 0 L 20 10 L 0 20 z" />
  </marker>
</defs>
<rect width="1240" height="790" fill="white" />
<polyline points="1238,2 1238,788 2,788 2,2 1238,2" fill="none" stroke="black" style="stroke-width:2px"/>
<polyline points="0,45 176,45 196,25 196,0" fill="none" stroke="black" style="stroke-width:2px"/>
<text  x="10" y="30" class="title">Website Timing</text><rect x="350" y="70" width="870" height="150" stroke="black" fill="none" /><text  x="20" y="145" class="lifeline-label">Web Server</text><text text-anchor="middle" x="360" y="245" class="simple">0</text><line x1="360" y1="215" x2="360" y2="230" stroke="black" /><text text-anchor="middle" x="410" y="245" class="simple">1</text><line x1="410" y1="215" x2="410" y2="230" stroke="black" /><text text-anchor="middle" x="460" y="245" class="simple">2</text><line x1="460" y1="215" x2="460" y2="230" stroke="black" /><text text-anchor="middle" x="510" y="245" class="simple">3</text><line x1="510" y1="215" x2="510" y2="230" stroke="black" /><text text-anchor="middle" x="560" y="245" class="simple">4</text><line x1="560" y1="215" x2="560" y2="230" stroke="black" /><text text-anchor="middle" x="610" y="245" class="simple">5</text><line x1="610" y1="215" x2="610" y2="230" stroke="black" /><text text-anchor="middle" x="660" y="245" class="simple">6</text><line x1="660" y1="215" x2="660" y2="230" stroke="black" /><text text-anchor="middle" x="710" y="245" class="simple">7</text><line x1="710" y1="215" x2="710" y2="230" stroke="black" /><text text-anchor="middle" x="760" y="245" class="simple">8</text><line x1="760" y1="215" x2="760" y2="230" stroke="black" /><text text-anchor="middle" x="810" y="245" class="simple">9</text><line x1="810" y1="215" x2="810" y2="230" stroke="black" /><text text-anchor="middle" x="860" y="245" class="simple">10</text><line x1="860" y1="215" x2="860" y2="230" stroke="black" /><text text-anchor="middle" x="910" y="245" class="simple">11</text><line x1="910" y1="215" x2="910" y2="230" stroke="black" /><text text-anchor="middle" x="960" y="245" class="simple">12</text><line x1="960" y1="215" x2="960" y2="230" stroke="black" /><text text-anchor="middle" x="1010" y="245" class="simple">13</text><line x1="1010" y1="215" x2="1010" y2="230" stroke="black" /><text text-anchor="middle" x="1060" y="245" class="simple">14</text><line x1="1060" y1="215" x2="1060" y2="230" stroke="black" /><text text-anchor="middle" x="1110" y="245" class="simple">15</text><line x1="1110" y1="215" x2="1110" y2="230" stroke="black" /><text text-anchor="middle" x="1160" y="245" class="simple">16</text><line x1="1160" y1="215" x2="1160" y2="230" stroke="black" /><text text-anchor="middle" x="1210" y="245" class="simple">17</text><line x1="1210" y1="215" x2="1210" y2="230" stroke="black" /><line x1="340" y1="200" x2="355" y2="200" stroke="black" /><text text-anchor="end" x="335" y="205" class="simple">Waiting</text><line x1="340" y1="160" x2="355" y2="160" stroke="black" /><text text-anchor="end" x="335" y="165" class="simple">Processing</text><line x1="340" y1="120" x2="355" y2="120" stroke="black" /><text text-anchor="end" x="335" y="125" class="simple">Sending Response</text><polyline points="360,200 410,200 460,200 510,200 560,200 610,200 660,200 710,200 760,200 810,200 810,160 860,160 910,160 910,120 960,120 1010,120 1010,200 1060,200 1110,200 1160,200 1210,200" fill="none" stroke="black" style="stroke-width:2px"/><rect x="350" y="265" width="870" height="110" stroke="black" fill="none" /><text  x="20" y="320" class="lifeline-label">DNS Resolver</text><text text-anchor="middle" x="360" y="400" class="simple">0</text><line x1="360" y1="370" x2="360" y2="385" stroke="black" /><text text-anchor="middle" x="410" y="400" class="simple">1</text><line x1="410" y1="370" x2="410" y2="385" stroke="black" /><text text-anchor="middle" x="460" y="400" class="simple">2</text><line x1="460" y1="370" x2="460" y2="385" stroke="black" /><text text-anchor="middle" x="510" y="400" class="simple">3</text><line x1="510" y1="370" x2="510" y2="385" stroke="black" /><text text-anchor="middle" x="560" y="400" class="simple">4</text><line x1="560" y1="370" x2="560" y2="385" stroke="black" /><text text-anchor="middle" x="610" y="400" class="simple">5</text><line x1="610" y1="370" x2="610" y2="385" stroke="black" /><text text-anchor="middle" x="660" y="400" class="simple">6</text><line x1="660" y1="370" x2="660" y2="385" stroke="black" /><text text-anchor="middle" x="710" y="400" class="simple">7</text><line x1="710" y1="370" x2="710" y2="385" stroke="black" /><text text-anchor="middle" x="760" y="400" class="simple">8</text><line x1="760" y1="370" x2="760" y2="385" stroke="black" /><text text-anchor="middle" x="810" y="400" class="simple">9</text><line x1="810" y1="370" x2="810" y2="385" stroke="black" /><text text-anchor="middle" x="860" y="400" class="simple">10</text><line x1="860" y1="370" x2="860" y2="385" stroke="black" /><text text-anchor="middle" x="910" y="400" class="simple">11</text><line x1="910" y1="370" x2="910" y2="385" stroke="black" /><text text-anchor="middle" x="960" y="400" class="simple">12</text><line x1="960" y1="370" x2="960" y2="385" stroke="black" /><text text-anchor="middle" x="1010" y="400" class="simple">13</text><line x1="1010" y1="370" x2="1010" y2="385" stroke="black" /><text text-anchor="middle" x="1060" y="400" class="simple">14</text><line x1="1060" y1="370" x2="1060" y2="385" stroke="black" /><text text-anchor="middle" x="1110" y="400" class="simple">15</text><line x1="1110" y1="370" x2="1110" y2="385" stroke="black" /><text text-anchor="middle" x="1160" y="400" class="simple">16</text><line x1="1160" y1="370" x2="1160" y2="385" stroke="black" /><text text-anchor="middle" x="1210" y="400" class="simple">17</text><line x1="1210" y1="370" x2="1210" y2="385" stroke="black" /><line x1="340" y1="355" x2="355" y2="355" stroke="black" /><text text-anchor="end" x="335" y="360" class="simple">Idle</text><line x1="340" y1="315" x2="355" y2="315" stroke="black" /><text text-anchor="end" x="335" y="320" class="simple">Processing</text><polyline points="360,355 410,355 460,355 510,355 560,355 560,315 610,315 660,315 660,355 710,355 760,355 810,355 860,355 910,355 960,355 1010,355 1060,355 1110,355 1160,355 1210,355" fill="none" stroke="black" style="stroke-width:2px"/><rect x="350" y="420" width="870" height="150" stroke="black" fill="none" /><text  x="20" y="495" class="lifeline-label">Web Browser</text><text text-anchor="middle" x="360" y="595" class="simple">0</text><line x1="360" y1="565" x2="360" y2="580" stroke="black" /><text text-anchor="middle" x="410" y="595" class="simple">1</text><line x1="410" y1="565" x2="410" y2="580" stroke="black" /><text text-anchor="middle" x="460" y="595" class="simple">2</text><line x1="460" y1="565" x2="460" y2="580" stroke="black" /><text text-anchor="middle" x="510" y="595" class="simple">3</text><line x1="510" y1="565" x2="510" y2="580" stroke="black" /><text text-anchor="middle" x="560" y="595" class="simple">4</text><line x1="560" y1="565" x2="560" y2="580" stroke="black" /><text text-anchor="middle" x="610" y="595" class="simple">5</text><line x1="610" y1="565" x2="610" y2="580" stroke="black" /><text text-anchor="middle" x="660" y="595" class="simple">6</text><line x1="660" y1="565" x2="660" y2="580" stroke="black" /><text text-anchor="middle" x="710" y="595" class="simple">7</text><line x1="710" y1="565" x2="710" y2="580" stroke="black" /><text text-anchor="middle" x="760" y="595" class="simple">8</text><line x1="760" y1="565" x2="760" y2="580" stroke="black" /><text text-anchor="middle" x="810" y="595" class="simple">9</text><line x1="810" y1="565" x2="810" y2="580" stroke="black" /><text text-anchor="middle" x="860" y="595" class="simple">10</text><line x1="860" y1="565" x2="860" y2="580" stroke="black" /><text text-anchor="middle" x="910" y="595" class="simple">11</text><line x1="910" y1="565" x2="910" y2="580" stroke="black" /><text text-anchor="middle" x="960" y="595" class="simple">12</text><line x1="960" y1="565" x2="960" y2="580" stroke="black" /><text text-anchor="middle" x="1010" y="595" class="simple">13</text><line x1="1010" y1="565" x2="1010" y2="580" stroke="black" /><text text-anchor="middle" x="1060" y="595" class="simple">14</text><line x1="1060" y1="565" x2="1060" y2="580" stroke="black" /><text text-anchor="middle" x="1110" y="595" class="simple">15</text><line x1="1110" y1="565" x2="1110" y2="580" stroke="black" /><text text-anchor="middle" x="1160" y="595" class="simple">16</text><line x1="1160" y1="565" x2="1160" y2="580" stroke="black" /><text text-anchor="middle" x="1210" y="595" class="simple">17</text><line x1="1210" y1="565" x2="1210" y2="580" stroke="black" /><line x1="340" y1="550" x2="355" y2="550" stroke="black" /><text text-anchor="end" x="335" y="555" class="simple">Idle</text><line x1="340" y1="510" x2="355" y2="510" stroke="black" /><text text-anchor="end" x="335" y="515" class="simple">Processing</text><line x1="340" y1="470" x2="355" y2="470" stroke="black" /><text text-anchor="end" x="335" y="475" class="simple">Waiting</text><polyline points="360,550 410,550 460,550 460,510 510,510 510,470 560,470 610,470 660,470 710,470 710,510 760,510 810,510 860,510 860,470 910,470 960,470 960,510 1010,510 1060,510 1060,550 1110,550 1160,550 1210,550" fill="none" stroke="black" style="stroke-width:2px"/><rect x="350" y="615" width="870" height="130" stroke="black" fill="none" /><text  x="20" y="680" class="lifeline-label">Web User</text><text text-anchor="middle" x="360" y="770" class="simple">0</text><line x1="360" y1="740" x2="360" y2="755" stroke="black" /><text text-anchor="middle" x="410" y="770" class="simple">1</text><line x1="410" y1="740" x2="410" y2="755" stroke="black" /><text text-anchor="middle" x="460" y="770" class="simple">2</text><line x1="460" y1="740" x2="460" y2="755" stroke="black" /><text text-anchor="middle" x="510" y="770" class="simple">3</text><line x1="510" y1="740" x2="510" y2="755" stroke="black" /><text text-anchor="middle" x="560" y="770" class="simple">4</text><line x1="560" y1="740" x2="560" y2="755" stroke="black" /><text text-anchor="middle" x="610" y="770" class="simple">5</text><line x1="610" y1="740" x2="610" y2="755" stroke="black" /><text text-anchor="middle" x="660" y="770" class="simple">6</text><line x1="660" y1="740" x2="660" y2="755" stroke="black" /><text text-anchor="middle" x="710" y="770" class="simple">7</text><line x1="710" y1="740" x2="710" y2="755" stroke="black" /><text text-anchor="middle" x="760" y="770" class="simple">8</text><line x1="760" y1="740" x2="760" y2="755" stroke="black" /><text text-anchor="middle" x="810" y="770" class="simple">9</text><line x1="810" y1="740" x2="810" y2="755" stroke="black" /><text text-anchor="middle" x="860" y="770" class="simple">10</text><line x1="860" y1="740" x2="860" y2="755" stroke="black" /><text text-anchor="middle" x="910" y="770" class="simple">11</text><line x1="910" y1="740" x2="910" y2="755" stroke="black" /><text text-anchor="middle" x="960" y="770" class="simple">12</text><line x1="960" y1="740" x2="960" y2="755" stroke="black" /><text text-anchor="middle" x="1010" y="770" class="simple">13</text><line x1="1010" y1="740" x2="1010" y2="755" stroke="black" /><text text-anchor="middle" x="1060" y="770" class="simple">14</text><line x1="1060" y1="740" x2="1060" y2="755" stroke="black" /><text text-anchor="middle" x="1110" y="770" class="simple">15</text><line x1="1110" y1="740" x2="1110" y2="755" stroke="black" /><text text-anchor="middle" x="1160" y="770" class="simple">16</text><line x1="1160" y1="740" x2="1160" y2="755" stroke="black" /><text text-anchor="middle" x="1210" y="770" class="simple">17</text><line x1="1210" y1="740" x2="1210" y2="755" stroke="black" /><line x1="340" y1="685" x2="355" y2="685" stroke="black" /><text text-anchor="end" x="335" y="690" class="simple">State</text><text text-anchor="middle" x="410" y="690" class="simple">Idle</text><text text-anchor="middle" x="785" y="690" class="simple">Waiting</text><text text-anchor="middle" x="1160" y="690" class="simple">Viewing</text><polyline points="360,665 443.3333333333333,665 460,685 476.6666666666667,665 1093.3333333333333,665 1110,685 1126.6666666666667,665 1210,665" fill="none" stroke="black" style="stroke-width:2px"/><polyline points="360,705 443.3333333333333,705 460,685 476.6666666666667,705 1093.3333333333333,705 1110,685 1126.6666666666667,705 1210,705" fill="none" stroke="black" style="stroke-width:2px"/><polyline points="560,300 660,300" fill="none" stroke="black" marker-start="url(#arrow)" marker-end="url(#arrow)" /><line x1="560" y1="293" x2="560" y2="307" stroke="black" /><line x1="660" y1="293" x2="660" y2="307" stroke="black" /><text text-anchor="middle" x="610" y="290" class="simple">{0..400 ms}</text><polyline points="810,105 1010,105" fill="none" stroke="black" marker-start="url(#arrow)" marker-end="url(#arrow)" /><line x1="810" y1="98" x2="810" y2="112" stroke="black" /><line x1="1010" y1="98" x2="1010" y2="112" stroke="black" /><text text-anchor="middle" x="910" y="95" class="simple">{200..800 ms}</text><polyline points="960,455 1060,455" fill="none" stroke="black" marker-start="url(#arrow)" marker-end="url(#arrow)" /><line x1="960" y1="448" x2="960" y2="462" stroke="black" /><line x1="1060" y1="448" x2="1060" y2="462" stroke="black" /><text text-anchor="middle" x="1010" y="445" class="simple">{100..500 ms}</text><polyline points="460,685 460,550" fill="none" stroke="black" marker-end="url(#arrow)" /><text text-anchor="start" x="470" y="631" class="simple">URL</text><polyline points="510,510 560,355" fill="none" stroke="black" marker-end="url(#arrow)" /><text text-anchor="end" x="519" y="451.1" class="simple">Resolve URL</text><polyline points="660,315 710,470" fill="none" stroke="black" stroke-dasharray="10" marker-end="url(#arrow)" /><polyline points="760,510 810,200" fill="none" stroke="black" marker-end="url(#arrow)" /><text text-anchor="start" x="779.5" y="451.1" class="simple">HTTP Request</text><polyline points="910,160 960,510" fill="none" stroke="black" stroke-dasharray="10" marker-end="url(#arrow)" /><text text-anchor="start" x="942.5" y="317.5" class="simple">HTTP Response</text><polyline points="1010,510 1110,685" fill="none" stroke="black" stroke-dasharray="10" marker-end="url(#arrow)" /><text text-anchor="end" x="1077" y="644.75" class="simple">Show Page</text></svg>
