<?xml version="1.0" encoding="UTF-8" standalone="no"?>
<svg xmlns="http://www.w3.org/2000/svg" width="1576" height="785" viewBox="0 0 1576 785">
<style>
  .title { font: bold 20px sans-serif }
  .lifeline-label { font: bold 17px sans-serif }
  .simple { font-family: sans-serif }
  text { white-space: pre }
</style>
<defs>
  <marker id="arrow" viewBox="0 0 20 20" refX="20" refY="10"
      markerWidth="12" markerHeight="12"
      orient="auto-start-reverse">
    <path d="M 0 0 L 20 10 L 0 20 z" />
  </marker>
</defs>
<rect width="1576" height="785" fill="white" />
<polyline points="1574,2 1574,783 2,783 2,2 1574,2" fill="none" stroke="black" style="stroke-width:2px"/>
<polyline points="0,45 428,45 448,25 448,0" fill="none" stroke="black" style="stroke-width:2px"/>
<text  x="10" y="30" class="title">Schedule over a period of 300 ms</text><rect x="336" y="70" width="1220" height="140" stroke="black" fill="none" /><text  x="20" y="140" class="lifeline-label">Without Task C</text><text text-anchor="middle" x="346" y="235" class="simple">0</text><line x1="346" y1="205" x2="346" y2="220" stroke="black" /><text text-anchor="middle" x="506" y="235" class="simple">40</text><line x1="506" y1="205" x2="506" y2="220" stroke="black" /><text text-anchor="middle" x="626" y="235" class="simple">70</text><line x1="626" y1="205" x2="626" y2="220" stroke="black" /><text text-anchor="middle" x="746" y="235" class="simple">100</text><line x1="746" y1="205" x2="746" y2="220" stroke="black" /><text text-anchor="middle" x="906" y="235" class="simple">140</text><line x1="906" y1="205" x2="906" y2="220" stroke="black" /><text text-anchor="middle" x="946" y="235" class="simple">150</text><line x1="946" y1="205" x2="946" y2="220" stroke="black" /><text text-anchor="middle" x="1066" y="235" class="simple">180</text><line x1="1066" y1="205" x2="1066" y2="220" stroke="black" /><text text-anchor="middle" x="1146" y="235" class="simple">200</text><line x1="1146" y1="205" x2="1146" y2="220" stroke="black" /><text text-anchor="middle" x="1306" y="235" class="simple">240</text><line x1="1306" y1="205" x2="1306" y2="220" stroke="black" /><text text-anchor="middle" x="1546" y="235" class="simple">300</text><line x1="1546" y1="205" x2="1546" y2="220" stroke="black" /><line x1="326" y1="190" x2="341" y2="190" stroke="black" /><polygon points="307,183 321,183 321,197 307,197" fill="#edf2f7" stroke="black" /><text text-anchor="end" x="297" y="195" class="simple">Idle</text><line x1="326" y1="150" x2="341" y2="150" stroke="black" /><polygon points="307,143 321,143 321,157 307,157" fill="#c6f6d5" stroke="black" /><text text-anchor="end" x="297" y="155" class="simple">Task A</text><line x1="326" y1="110" x2="341" y2="110" stroke="black" /><polygon points="307,103 321,103 321,117 307,117" fill="#fefcbf" stroke="black" /><text text-anchor="end" x="297" y="115" class="simple">Task B</text><polygon points="346,150 506,150 506,190 346,190" fill="#c6f6d5" stroke="none" /><polygon points="506,110 626,110 626,190 506,190" fill="#fefcbf" stroke="none" /><polygon points="626,190 746,190 746,190 626,190" fill="#edf2f7" stroke="none" /><polygon points="746,150 906,150 906,190 746,190" fill="#c6f6d5" stroke="none" /><polygon points="906,190 946,190 946,190 906,190" fill="#edf2f7" stroke="none" /><polygon points="946,110 1066,110 1066,190 946,190" fill="#fefcbf" stroke="none" /><polygon points="1066,190 1146,190 1146,190 1066,190" fill="#edf2f7" stroke="none" /><polygon points="1146,150 1306,150 1306,190 1146,190" fill="#c6f6d5" stroke="none" /><polygon points="1306,190 1546,190 1546,190 1306,190" fill="#edf2f7" stroke="none" /><polyline points="346,150 506,150" fill="none" stroke="black" style="stroke-width:2px"/><polyline points="506,190 506,70" fill="none" stroke="black" stroke-dasharray="10" /><polyline points="506,110 626,110" fill="none" stroke="black" style="stroke-width:2px"/><polyline points="626,190 626,70" fill="none" stroke="black" stroke-dasharray="10" /><polyline points="626,190 746,190" fill="none" stroke="black" style="stroke-width:2px"/><polyline points="746,190 746,70" fill="none" stroke="black" stroke-dasharray="10" /><polyline points="746,150 906,150" fill="none" stroke="black" style="stroke-width:2px"/><polyline points="906,190 906,70" fill="none" stroke="black" stroke-dasharray="10" /><polyline points="906,190 946,190" fill="none" stroke="black" style="stroke-width:2px"/><polyline points="946,190 946,70" fill="none" stroke="black" stroke-dasharray="10" /><polyline points="946,110 1066,110" fill="none" stroke="black" style="stroke-width:2px"/><polyline points="1066,190 1066,70" fill="none" stroke="black" stroke-dasharray="10" /><polyline points="1066,190 1146,190" fill="none" stroke="black" style="stroke-width:2px"/><polyline points="1146,190 1146,70" fill="none" stroke="black" stroke-dasharray="10" /><polyline points="1146,150 1306,150" fill="none" stroke="black" style="stroke-width:2px"/><polyline points="1306,190 1306,70" fill="none" stroke="black" stroke-dasharray="10" /><polyline points="1306,190 1546,190" fill="none" stroke="black" style="stroke-width:2px"/><polyline points="1546,190 1546,70" fill="none" stroke="black" stroke-dasharray="10" /><rect x="336" y="255" width="1220" height="180" stroke="black" fill="none" /><text  x="20" y="345" class="lifeline-label">With Task C</text><text text-anchor="middle" x="346" y="460" class="simple">0</text><line x1="346" y1="430" x2="346" y2="445" stroke="black" /><text text-anchor="middle" x="426" y="460" class="simple">20</text><line x1="426" y1="430" x2="426" y2="445" stroke="black" /><text text-anchor="middle" x="546" y="460" class="simple">50</text><line x1="546" y1="430" x2="546" y2="445" stroke="black" /><text text-anchor="middle" x="626" y="460" class="simple">70</text><line x1="626" y1="430" x2="626" y2="445" stroke="black" /><text text-anchor="middle" x="666" y="460" class="simple">80</text><line x1="666" y1="430" x2="666" y2="445" stroke="black" /><text text-anchor="middle" x="746" y="460" class="simple">100</text><line x1="746" y1="430" x2="746" y2="445" stroke="black" /><text text-anchor="middle" x="826" y="460" class="simple">120</text><line x1="826" y1="430" x2="826" y2="445" stroke="black" /><text text-anchor="middle" x="866" y="460" class="simple">130</text><line x1="866" y1="430" x2="866" y2="445" stroke="black" /><text text-anchor="middle" x="946" y="460" class="simple">150</text><line x1="946" y1="430" x2="946" y2="445" stroke="black" /><text text-anchor="middle" x="1026" y="460" class="simple">170</text><line x1="1026" y1="430" x2="1026" y2="445" stroke="black" /><text text-anchor="middle" x="1106" y="460" class="simple">190</text><line x1="1106" y1="430" x2="1106" y2="445" stroke="black" /><text text-anchor="middle" x="1146" y="460" class="simple">200</text><line x1="1146" y1="430" x2="1146" y2="445" stroke="black" /><text text-anchor="middle" x="1226" y="460" class="simple">220</text><line x1="1226" y1="430" x2="1226" y2="445" stroke="black" /><text text-anchor="middle" x="1306" y="460" class="simple">240</text><line x1="1306" y1="430" x2="1306" y2="445" stroke="black" /><text text-anchor="middle" x="1346" y="460" class="simple">250</text><line x1="1346" y1="430" x2="1346" y2="445" stroke="black" /><text text-anchor="middle" x="1426" y="460" class="simple">270</text><line x1="1426" y1="430" x2="1426" y2="445" stroke="black" /><text text-anchor="middle" x="1546" y="460" class="simple">300</text><line x1="1546" y1="430" x2="1546" y2="445" stroke="black" /><line x1="326" y1="415" x2="341" y2="415" stroke="black" /><polygon points="307,408 321,408 321,422 307,422" fill="#edf2f7" stroke="black" /><text text-anchor="end" x="297" y="420" class="simple">Idle</text><line x1="326" y1="375" x2="341" y2="375" stroke="black" /><polygon points="307,368 321,368 321,382 307,382" fill="#c6f6d5" stroke="black" /><text text-anchor="end" x="297" y="380" class="simple">Task A</text><line x1="326" y1="335" x2="341" y2="335" stroke="black" /><polygon points="307,328 321,328 321,342 307,342" fill="#fefcbf" stroke="black" /><text text-anchor="end" x="297" y="340" class="simple">Task B</text><line x1="326" y1="295" x2="341" y2="295" stroke="black" /><polygon points="307,288 321,288 321,302 307,302" fill="#fed7d7" stroke="black" /><text text-anchor="end" x="297" y="300" class="simple">Task C</text><polygon points="346,295 426,295 426,415 346,415" fill="#fed7d7" stroke="none" /><polygon points="426,375 546,375 546,415 426,415" fill="#c6f6d5" stroke="none" /><polygon points="546,295 626,295 626,415 546,415" fill="#fed7d7" stroke="none" /><polygon points="626,375 666,375 666,415 626,415" fill="#c6f6d5" stroke="none" /><polygon points="666,335 746,335 746,415 666,415" fill="#fefcbf" stroke="none" /><polygon points="746,295 826,295 826,415 746,415" fill="#fed7d7" stroke="none" /><polygon points="826,335 866,335 866,415 826,415" fill="#fefcbf" stroke="none" /><polygon points="866,375 946,375 946,415 866,415" fill="#c6f6d5" stroke="none" /><polygon points="946,295 1026,295 1026,415 946,415" fill="#fed7d7" stroke="none" /><polygon points="1026,375 1106,375 1106,415 1026,415" fill="#c6f6d5" stroke="none" /><polygon points="1106,335 1146,335 1146,415 1106,415" fill="#fefcbf" stroke="none" /><polygon points="1146,295 1226,295 1226,415 1146,415" fill="#fed7d7" stroke="none" /><polygon points="1226,335 1306,335 1306,415 1226,415" fill="#fefcbf" stroke="none" /><polygon points="1306,375 1346,375 1346,415 1306,415" fill="#c6f6d5" stroke="none" /><polygon points="1346,295 1426,295 1426,415 1346,415" fill="#fed7d7" stroke="none" /><polygon points="1426,375 1546,375 1546,415 1426,415" fill="#c6f6d5" stroke="none" /><polyline points="346,295 426,295" fill="none" stroke="black" style="stroke-width:2px"/><polyline points="426,415 426,255" fill="none" stroke="black" stroke-dasharray="10" /><polyline points="426,375 546,375" fill="none" stroke="black" style="stroke-width:2px"/><polyline points="546,415 546,255" fill="none" stroke="black" stroke-dasharray="10" /><polyline points="546,295 626,295" fill="none" stroke="black" style="stroke-width:2px"/><polyline points="626,415 626,255" fill="none" stroke="black" stroke-dasharray="10" /><polyline points="626,375 666,375" fill="none" stroke="black" style="stroke-width:2px"/><polyline points="666,415 666,255" fill="none" stroke="black" stroke-dasharray="10" /><polyline points="666,335 746,335" fill="none" stroke="black" style="stroke-width:2px"/><polyline points="746,415 746,255" fill="none" stroke="black" stroke-dasharray="10" /><polyline points="746,295 826,295" fill="none" stroke="black" style="stroke-width:2px"/><polyline points="826,415 826,255" fill="none" stroke="black" stroke-dasharray="10" /><polyline points="826,335 866,335" fill="none" stroke="black" style="stroke-width:2px"/><polyline points="866,415 866,255" fill="none" stroke="black" stroke-dasharray="10" /><polyline points="866,375 946,375" fill="none" stroke="black" style="stroke-width:2px"/><polyline points="946,415 946,255" fill="none" stroke="black" stroke-dasharray="10" /><polyline points="946,295 1026,295" fill="none" stroke="black" style="stroke-width:2px"/><polyline points="1026,415 1026,255" fill="none" stroke="black" stroke-dasharray="10" /><polyline points="1026,375 1106,375" fill="none" stroke="black" style="stroke-width:2px"/><polyline points="1106,415 1106,255" fill="none" stroke="black" stroke-dasharray="10" /><polyline points="1106,335 1146,335" fill="none" stroke="black" style="stroke-width:2px"/><polyline points="1146,415 1146,255" fill="none" stroke="black" stroke-dasharray="10" /><polyline points="1146,295 1226,295" fill="none" stroke="black" style="stroke-width:2px"/><polyline points="1226,415 1226,255" fill="none" stroke="black" stroke-dasharray="10" /><polyline points="1226,335 1306,335" fill="none" stroke="black" style="stroke-width:2px"/><polyline points="1306,415 1306,255" fill="none" stroke="black" stroke-dasharray="10" /><polyline points="1306,375 1346,375" fill="none" stroke="black" style="stroke-width:2px"/><polyline points="1346,415 1346,255" fill="none" stroke="black" stroke-dasharray="10" /><polyline points="1346,295 1426,295" fill="none" stroke="black" style="stroke-width:2px"/><polyline points="1426,415 1426,255" fill="none" stroke="black" stroke-dasharray="10" /><polyline points="1426,375 1546,375" fill="none" stroke="black" style="stroke-width:2px"/><polyline points="1546,415 1546,255" fill="none" stroke="black" stroke-dasharray="10" /><rect x="336" y="480" width="1220" height="260" stroke="black" fill="none" /><text  x="20" y="610" class="lifeline-label">With Several Tasks BUH</text><text text-anchor="middle" x="346" y="765" class="simple">0</text><line x1="346" y1="735" x2="346" y2="750" stroke="black" /><text text-anchor="middle" x="466" y="765" class="simple">30</text><line x1="466" y1="735" x2="466" y2="750" stroke="black" /><text text-anchor="middle" x="506" y="765" class="simple">40</text><line x1="506" y1="735" x2="506" y2="750" stroke="black" /><text text-anchor="middle" x="586" y="765" class="simple">60</text><line x1="586" y1="735" x2="586" y2="750" stroke="black" /><text text-anchor="middle" x="626" y="765" class="simple">70</text><line x1="626" y1="735" x2="626" y2="750" stroke="black" /><text text-anchor="middle" x="746" y="765" class="simple">100</text><line x1="746" y1="735" x2="746" y2="750" stroke="black" /><text text-anchor="middle" x="906" y="765" class="simple">140</text><line x1="906" y1="735" x2="906" y2="750" stroke="black" /><text text-anchor="middle" x="1106" y="765" class="simple">190</text><line x1="1106" y1="735" x2="1106" y2="750" stroke="black" /><text text-anchor="middle" x="1226" y="765" class="simple">220</text><line x1="1226" y1="735" x2="1226" y2="750" stroke="black" /><line x1="326" y1="720" x2="341" y2="720" stroke="black" /><polygon points="307,713 321,713 321,727 307,727" fill="#edf2f7" stroke="black" /><text text-anchor="end" x="297" y="725" class="simple">Idle</text><line x1="326" y1="680" x2="341" y2="680" stroke="black" /><polygon points="307,673 321,673 321,687 307,687" fill="#c6f6d5" stroke="black" /><text text-anchor="end" x="297" y="685" class="simple">Task A</text><line x1="326" y1="640" x2="341" y2="640" stroke="black" /><polygon points="307,633 321,633 321,647 307,647" fill="#fefcbf" stroke="black" /><text text-anchor="end" x="297" y="645" class="simple">Task B</text><line x1="326" y1="600" x2="341" y2="600" stroke="black" /><polygon points="307,593 321,593 321,607 307,607" fill="#fed7d7" stroke="black" /><text text-anchor="end" x="297" y="605" class="simple">Task C</text><line x1="326" y1="560" x2="341" y2="560" stroke="black" /><polygon points="307,553 321,553 321,567 307,567" fill="#b2f5ea" stroke="black" /><text text-anchor="end" x="297" y="565" class="simple">Task D</text><line x1="326" y1="520" x2="341" y2="520" stroke="black" /><polygon points="307,513 321,513 321,527 307,527" fill="#e9d8fd" stroke="black" /><text text-anchor="end" x="297" y="525" class="simple">Task E</text><polygon points="346,680 466,680 466,720 346,720" fill="#c6f6d5" stroke="none" /><polygon points="466,640 506,640 506,720 466,720" fill="#fefcbf" stroke="none" /><polygon points="506,600 586,600 586,720 506,720" fill="#fed7d7" stroke="none" /><polygon points="586,640 626,640 626,720 586,720" fill="#fefcbf" stroke="none" /><polygon points="626,720 746,720 746,720 626,720" fill="#edf2f7" stroke="none" /><polygon points="746,560 906,560 906,720 746,720" fill="#b2f5ea" stroke="none" /><polygon points="906,520 1106,520 1106,720 906,720" fill="#e9d8fd" stroke="none" /><polygon points="1106,640 1226,640 1226,720 1106,720" fill="#fefcbf" stroke="none" /><polyline points="346,680 466,680" fill="none" stroke="black" style="stroke-width:2px"/><polyline points="466,720 466,480" fill="none" stroke="black" stroke-dasharray="10" /><polyline points="466,640 506,640" fill="none" stroke="black" style="stroke-width:2px"/><polyline points="506,720 506,480" fill="none" stroke="black" stroke-dasharray="10" /><polyline points="506,600 586,600" fill="none" stroke="black" style="stroke-width:2px"/><polyline points="586,720 586,480" fill="none" stroke="black" stroke-dasharray="10" /><polyline points="586,640 626,640" fill="none" stroke="black" style="stroke-width:2px"/><polyline points="626,720 626,480" fill="none" stroke="black" stroke-dasharray="10" /><polyline points="626,720 746,720" fill="none" stroke="black" style="stroke-width:2px"/><polyline points="746,720 746,480" fill="none" stroke="black" stroke-dasharray="10" /><polyline points="746,560 906,560" fill="none" stroke="black" style="stroke-width:2px"/><polyline points="906,720 906,480" fill="none" stroke="black" stroke-dasharray="10" /><polyline points="906,520 1106,520" fill="none" stroke="black" style="stroke-width:2px"/><polyline points="1106,720 1106,480" fill="none" stroke="black" stroke-dasharray="10" /><polyline points="1106,640 1226,640" fill="none" stroke="black" style="stroke-width:2px"/><polyline points="1226,720 1226,480" fill="none" stroke="black" stroke-dasharray="10" /></svg>
