<?xml version="1.0" encoding="UTF-8" standalone="no"?>
<svg xmlns="http://www.w3.org/2000/svg" width="1574" height="500" viewBox="0 0 1574 500">
<style>
  .title { font: bold 20px sans-serif }
  .lifeline-label { font: bold 17px sans-serif }
  .simple { font-family: sans-serif }
  text { white-space: pre }
</style>
<defs>
  <marker id="arrow" viewBox="0 0 20 20" refX="20" refY="10"
      markerWidth="12" markerHeight="12"
      orient="auto-start-reverse">
    <path d="M 0 0 L 20 10 L 0 20 z" />
  </marker>
</defs>
<rect width="1574" height="500" fill="white" />
<polyline points="1572,2 1572,498 2,498 2,2 1572,2" fill="none" stroke="black" style="stroke-width:2px"/>
<polyline points="0,45 428,45 448,25 448,0" fill="none" stroke="black" style="stroke-width:2px"/>
<text  x="10" y="30" class="title">Schedule over a period of 300 ms</text><rect x="334" y="70" width="1220" height="150" stroke="black" fill="none" /><text  x="20" y="145" class="lifeline-label">Without Task C</text><text text-anchor="middle" x="344" y="245" class="simple">0</text><line x1="344" y1="215" x2="344" y2="230" stroke="black" /><text text-anchor="middle" x="504" y="245" class="simple">40</text><line x1="504" y1="215" x2="504" y2="230" stroke="black" /><text text-anchor="middle" x="624" y="245" class="simple">70</text><line x1="624" y1="215" x2="624" y2="230" stroke="black" /><text text-anchor="middle" x="744" y="245" class="simple">100</text><line x1="744" y1="215" x2="744" y2="230" stroke="black" /><text text-anchor="middle" x="904" y="245" class="simple">140</text><line x1="904" y1="215" x2="904" y2="230" stroke="black" /><text text-anchor="middle" x="944" y="245" class="simple">150</text><line x1="944" y1="215" x2="944" y2="230" stroke="black" /><text text-anchor="middle" x="1064" y="245" class="simple">180</text><line x1="1064" y1="215" x2="1064" y2="230" stroke="black" /><text text-anchor="middle" x="1144" y="245" class="simple">200</text><line x1="1144" y1="215" x2="1144" y2="230" stroke="black" /><text text-anchor="middle" x="1304" y="245" class="simple">240</text><line x1="1304" y1="215" x2="1304" y2="230" stroke="black" /><text text-anchor="middle" x="1544" y="245" class="simple">300</text><line x1="1544" y1="215" x2="1544" y2="230" stroke="black" /><line x1="324" y1="200" x2="339" y2="200" stroke="black" /><text text-anchor="end" x="319" y="205" class="simple">Idle</text><line x1="324" y1="160" x2="339" y2="160" stroke="black" /><text text-anchor="end" x="319" y="165" class="simple">Task A</text><line x1="324" y1="120" x2="339" y2="120" stroke="black" /><text text-anchor="end" x="319" y="125" class="simple">Task B</text><polygon points="344,160 504,160 504,200 344,200" fill="#c6f6d5" stroke="none" /><polygon points="504,120 624,120 624,200 504,200" fill="#fefcbf" stroke="none" /><polygon points="624,200 744,200 744,200 624,200" fill="#edf2f7" stroke="none" /><polygon points="744,160 904,160 904,200 744,200" fill="#c6f6d5" stroke="none" /><polygon points="904,200 944,200 944,200 904,200" fill="#edf2f7" stroke="none" /><polygon points="944,120 1064,120 1064,200 944,200" fill="#fefcbf" stroke="none" /><polygon points="1064,200 1144,200 1144,200 1064,200" fill="#edf2f7" stroke="none" /><polygon points="1144,160 1304,160 1304,200 1144,200" fill="#c6f6d5" stroke="none" /><polyline points="344,160 348,160 352,160 356,160 360,160 364,160 368,160 372,160 376,160 380,160 384,160 388,160 392,160 396,160 400,160 404,160 408,160 412,160 416,160 420,160 424,160 428,160 432,160 436,160 440,160 444,160 448,160 452,160 456,160 460,160 464,160 468,160 472,160 476,160 480,160 484,160 488,160 492,160 496,160 500,160 504,160 504,120 508,120 512,120 516,120 520,120 524,120 528,120 532,120 536,120 540,120 544,120 548,120 552,120 556,120 560,120 564,120 568,120 572,120 576,120 580,120 584,120 588,120 592,120 596,120 600,120 604,120 608,120 612,120 616,120 620,120 624,120 624,200 628,200 632,200 636,200 640,200 644,200 648,200 652,200 656,200 660,200 664,200 668,200 672,200 676,200 680,200 684,200 688,200 692,200 696,200 700,200 704,200 708,200 712,200 716,200 720,200 724,200 728,200 732,200 736,200 740,200 744,200 744,160 748,160 752,160 756,160 760,160 764,160 768,160 772,160 776,160 780,160 784,160 788,160 792,160 796,160 800,160 804,160 808,160 812,160 816,160 820,160 824,160 828,160 832,160 836,160 840,160 844,160 848,160 852,160 856,160 860,160 864,160 868,160 872,160 876,160 880,160 884,160 888,160 892,160 896,160 900,160 904,160 904,200 908,200 912,200 916,200 920,200 924,200 928,200 932,200 936,200 940,200 944,200 944,120 948,120 952,120 956,120 960,120 964,120 968,120 972,120 976,120 980,120 984,120 988,120 992,120 996,120 1000,120 1004,120 1008,120 1012,120 1016,120 1020,120 1024,120 1028,120 1032,120 1036,120 1040,120 1044,120 1048,120 1052,120 1056,120 1060,120 1064,120 1064,200 1068,200 1072,200 1076,200 1080,200 1084,200 1088,200 1092,200 1096,200 1100,200 1104,200 1108,200 1112,200 1116,200 1120,200 1124,200 1128,200 1132,200 1136,200 1140,200 1144,200 1144,160 1148,160 1152,160 1156,160 1160,160 1164,160 1168,160 1172,160 1176,160 1180,160 1184,160 1188,160 1192,160 1196,160 1200,160 1204,160 1208,160 1212,160 1216,160 1220,160 1224,160 1228,160 1232,160 1236,160 1240,160 1244,160 1248,160 1252,160 1256,160 1260,160 1264,160 1268,160 1272,160 1276,160 1280,160 1284,160 1288,160 1292,160 1296,160 1300,160 1304,160 1304,200 1308,200 1312,200 1316,200 1320,200 1324,200 1328,200 1332,200 1336,200 1340,200 1344,200 1348,200 1352,200 1356,200 1360,200 1364,200 1368,200 1372,200 1376,200 1380,200 1384,200 1388,200 1392,200 1396,200 1400,200 1404,200 1408,200 1412,200 1416,200 1420,200 1424,200 1428,200 1432,200 1436,200 1440,200 1444,200 1448,200 1452,200 1456,200 1460,200 1464,200 1468,200 1472,200 1476,200 1480,200 1484,200 1488,200 1492,200 1496,200 1500,200 1504,200 1508,200 1512,200 1516,200 1520,200 1524,200 1528,200 1532,200 1536,200 1540,200 1544,200" fill="none" stroke="black" style="stroke-width:2px"/><rect x="334" y="265" width="1220" height="190" stroke="black" fill="none" /><text  x="20" y="360" class="lifeline-label">With Task C</text><text text-anchor="middle" x="344" y="480" class="simple">0</text><line x1="344" y1="450" x2="344" y2="465" stroke="black" /><text text-anchor="middle" x="424" y="480" class="simple">20</text><line x1="424" y1="450" x2="424" y2="465" stroke="black" /><text text-anchor="middle" x="544" y="480" class="simple">50</text><line x1="544" y1="450" x2="544" y2="465" stroke="black" /><text text-anchor="middle" x="624" y="480" class="simple">70</text><line x1="624" y1="450" x2="624" y2="465" stroke="black" /><text text-anchor="middle" x="664" y="480" class="simple">80</text><line x1="664" y1="450" x2="664" y2="465" stroke="black" /><text text-anchor="middle" x="744" y="480" class="simple">100</text><line x1="744" y1="450" x2="744" y2="465" stroke="black" /><text text-anchor="middle" x="824" y="480" class="simple">120</text><line x1="824" y1="450" x2="824" y2="465" stroke="black" /><text text-anchor="middle" x="864" y="480" class="simple">130</text><line x1="864" y1="450" x2="864" y2="465" stroke="black" /><text text-anchor="middle" x="944" y="480" class="simple">150</text><line x1="944" y1="450" x2="944" y2="465" stroke="black" /><text text-anchor="middle" x="1024" y="480" class="simple">170</text><line x1="1024" y1="450" x2="1024" y2="465" stroke="black" /><text text-anchor="middle" x="1104" y="480" class="simple">190</text><line x1="1104" y1="450" x2="1104" y2="465" stroke="black" /><text text-anchor="middle" x="1144" y="480" class="simple">200</text><line x1="1144" y1="450" x2="1144" y2="465" stroke="black" /><text text-anchor="middle" x="1224" y="480" class="simple">220</text><line x1="1224" y1="450" x2="1224" y2="465" stroke="black" /><text text-anchor="middle" x="1304" y="480" class="simple">240</text><line x1="1304" y1="450" x2="1304" y2="465" stroke="black" /><text text-anchor="middle" x="1344" y="480" class="simple">250</text><line x1="1344" y1="450" x2="1344" y2="465" stroke="black" /><text text-anchor="middle" x="1424" y="480" class="simple">270</text><line x1="1424" y1="450" x2="1424" y2="465" stroke="black" /><text text-anchor="middle" x="1544" y="480" class="simple">300</text><line x1="1544" y1="450" x2="1544" y2="465" stroke="black" /><line x1="324" y1="435" x2="339" y2="435" stroke="black" /><text text-anchor="end" x="319" y="440" class="simple">Idle</text><line x1="324" y1="395" x2="339" y2="395" stroke="black" /><text text-anchor="end" x="319" y="400" class="simple">Task A</text><line x1="324" y1="355" x2="339" y2="355" stroke="black" /><text text-anchor="end" x="319" y="360" class="simple">Task B</text><line x1="324" y1="315" x2="339" y2="315" stroke="black" /><text text-anchor="end" x="319" y="320" class="simple">Task C</text><polygon points="344,315 424,315 424,435 344,435" fill="#fed7d7" stroke="none" /><polygon points="424,395 544,395 544,435 424,435" fill="#c6f6d5" stroke="none" /><polygon points="544,315 624,315 624,435 544,435" fill="#fed7d7" stroke="none" /><polygon points="624,395 664,395 664,435 624,435" fill="#c6f6d5" stroke="none" /><polygon points="664,355 744,355 744,435 664,435" fill="#fefcbf" stroke="none" /><polygon points="744,315 824,315 824,435 744,435" fill="#fed7d7" stroke="none" /><polygon points="824,355 864,355 864,435 824,435" fill="#fefcbf" stroke="none" /><polygon points="864,395 944,395 944,435 864,435" fill="#c6f6d5" stroke="none" /><polygon points="944,315 1024,315 1024,435 944,435" fill="#fed7d7" stroke="none" /><polygon points="1024,395 1104,395 1104,435 1024,435" fill="#c6f6d5" stroke="none" /><polygon points="1104,355 1144,355 1144,435 1104,435" fill="#fefcbf" stroke="none" /><polygon points="1144,315 1224,315 1224,435 1144,435" fill="#fed7d7" stroke="none" /><polygon points="1224,355 1304,355 1304,435 1224,435" fill="#fefcbf" stroke="none" /><polygon points="1304,395 1344,395 1344,435 1304,435" fill="#c6f6d5" stroke="none" /><polygon points="1344,315 1424,315 1424,435 1344,435" fill="#fed7d7" stroke="none" /><polygon points="1424,395 1544,395 1544,435 1424,435" fill="#c6f6d5" stroke="none" /><polyline points="344,315 348,315 352,315 356,315 360,315 364,315 368,315 372,315 376,315 380,315 384,315 388,315 392,315 396,315 400,315 404,315 408,315 412,315 416,315 420,315 424,315 424,395 428,395 432,395 436,395 440,395 444,395 448,395 452,395 456,395 460,395 464,395 468,395 472,395 476,395 480,395 484,395 488,395 492,395 496,395 500,395 504,395 508,395 512,395 516,395 520,395 524,395 528,395 532,395 536,395 540,395 544,395 544,315 548,315 552,315 556,315 560,315 564,315 568,315 572,315 576,315 580,315 584,315 588,315 592,315 596,315 600,315 604,315 608,315 612,315 616,315 620,315 624,315 624,395 628,395 632,395 636,395 640,395 644,395 648,395 652,395 656,395 660,395 664,395 664,355 668,355 672,355 676,355 680,355 684,355 688,355 692,355 696,355 700,355 704,355 708,355 712,355 716,355 720,355 724,355 728,355 732,355 736,355 740,355 744,355 744,315 748,315 752,315 756,315 760,315 764,315 768,315 772,315 776,315 780,315 784,315 788,315 792,315 796,315 800,315 804,315 808,315 812,315 816,315 820,315 824,315 824,355 828,355 832,355 836,355 840,355 844,355 848,355 852,355 856,355 860,355 864,355 864,395 868,395 872,395 876,395 880,395 884,395 888,395 892,395 896,395 900,395 904,395 908,395 912,395 916,395 920,395 924,395 928,395 932,395 936,395 940,395 944,395 944,315 948,315 952,315 956,315 960,315 964,315 968,315 972,315 976,315 980,315 984,315 988,315 992,315 996,315 1000,315 1004,315 1008,315 1012,315 1016,315 1020,315 1024,315 1024,395 1028,395 1032,395 1036,395 1040,395 1044,395 1048,395 1052,395 1056,395 1060,395 1064,395 1068,395 1072,395 1076,395 1080,395 1084,395 1088,395 1092,395 1096,395 1100,395 1104,395 1104,355 1108,355 1112,355 1116,355 1120,355 1124,355 1128,355 1132,355 1136,355 1140,355 1144,355 1144,315 1148,315 1152,315 1156,315 1160,315 1164,315 1168,315 1172,315 1176,315 1180,315 1184,315 1188,315 1192,315 1196,315 1200,315 1204,315 1208,315 1212,315 1216,315 1220,315 1224,315 1224,355 1228,355 1232,355 1236,355 1240,355 1244,355 1248,355 1252,355 1256,355 1260,355 1264,355 1268,355 1272,355 1276,355 1280,355 1284,355 1288,355 1292,355 1296,355 1300,355 1304,355 1304,395 1308,395 1312,395 1316,395 1320,395 1324,395 1328,395 1332,395 1336,395 1340,395 1344,395 1344,315 1348,315 1352,315 1356,315 1360,315 1364,315 1368,315 1372,315 1376,315 1380,315 1384,315 1388,315 1392,315 1396,315 1400,315 1404,315 1408,315 1412,315 1416,315 1420,315 1424,315 1424,395 1428,395 1432,395 1436,395 1440,395 1444,395 1448,395 1452,395 1456,395 1460,395 1464,395 1468,395 1472,395 1476,395 1480,395 1484,395 1488,395 1492,395 1496,395 1500,395 1504,395 1508,395 1512,395 1516,395 1520,395 1524,395 1528,395 1532,395 1536,395 1540,395 1544,395 1544,315" fill="none" stroke="black" style="stroke-width:2px"/></svg>
