<?xml version="1.0" encoding="UTF-8" standalone="no"?>
<svg xmlns="http://www.w3.org/2000/svg" width="1536" height="785" viewBox="0 0 1536 785">
<style>
  .title { font: bold 20px sans-serif }
  .lifeline-label { font: bold 17px sans-serif }
  .simple { font-family: sans-serif }
  text { white-space: pre }
</style>
<defs>
  <marker id="arrow" viewBox="0 0 20 20" refX="20" refY="10"
      markerWidth="12" markerHeight="12"
      orient="auto-start-reverse">
    <path d="M 0 0 L 20 10 L 0 20 z" />
  </marker>
</defs>
<rect width="1536" height="785" fill="white" />
<polyline points="1534,2 1534,783 2,783 2,2 1534,2" fill="none" stroke="black" style="stroke-width:2px"/>
<polyline points="0,45 428,45 448,25 448,0" fill="none" stroke="black" style="stroke-width:2px"/>
<text  x="10" y="30" class="title">Schedule over a period of 300 ms</text><rect x="296" y="70" width="1220" height="140" stroke="black" fill="none" /><text  x="20" y="140" class="lifeline-label">Without Task C</text><text text-anchor="middle" x="306" y="235" class="simple">0</text><line x1="306" y1="205" x2="306" y2="220" stroke="black" /><text text-anchor="middle" x="466" y="235" class="simple">40</text><line x1="466" y1="205" x2="466" y2="220" stroke="black" /><text text-anchor="middle" x="586" y="235" class="simple">70</text><line x1="586" y1="205" x2="586" y2="220" stroke="black" /><text text-anchor="middle" x="706" y="235" class="simple">100</text><line x1="706" y1="205" x2="706" y2="220" stroke="black" /><text text-anchor="middle" x="866" y="235" class="simple">140</text><line x1="866" y1="205" x2="866" y2="220" stroke="black" /><text text-anchor="middle" x="906" y="235" class="simple">150</text><line x1="906" y1="205" x2="906" y2="220" stroke="black" /><text text-anchor="middle" x="1026" y="235" class="simple">180</text><line x1="1026" y1="205" x2="1026" y2="220" stroke="black" /><text text-anchor="middle" x="1106" y="235" class="simple">200</text><line x1="1106" y1="205" x2="1106" y2="220" stroke="black" /><text text-anchor="middle" x="1266" y="235" class="simple">240</text><line x1="1266" y1="205" x2="1266" y2="220" stroke="black" /><text text-anchor="middle" x="1506" y="235" class="simple">300</text><line x1="1506" y1="205" x2="1506" y2="220" stroke="black" /><line x1="286" y1="190" x2="301" y2="190" stroke="black" /><polygon points="267,183 281,183 281,197 267,197" fill="#edf2f7" stroke="black" /><text text-anchor="end" x="257" y="195" class="simple">Idle</text><line x1="286" y1="150" x2="301" y2="150" stroke="black" /><polygon points="267,143 281,143 281,157 267,157" fill="#c6f6d5" stroke="black" /><text text-anchor="end" x="257" y="155" class="simple">Task A</text><line x1="286" y1="110" x2="301" y2="110" stroke="black" /><polygon points="267,103 281,103 281,117 267,117" fill="#fefcbf" stroke="black" /><text text-anchor="end" x="257" y="115" class="simple">Task B</text><polygon points="306,150 466,150 466,190 306,190" fill="#c6f6d5" stroke="none" /><polygon points="466,110 586,110 586,190 466,190" fill="#fefcbf" stroke="none" /><polygon points="586,190 706,190 706,190 586,190" fill="#edf2f7" stroke="none" /><polygon points="706,150 866,150 866,190 706,190" fill="#c6f6d5" stroke="none" /><polygon points="866,190 906,190 906,190 866,190" fill="#edf2f7" stroke="none" /><polygon points="906,110 1026,110 1026,190 906,190" fill="#fefcbf" stroke="none" /><polygon points="1026,190 1106,190 1106,190 1026,190" fill="#edf2f7" stroke="none" /><polygon points="1106,150 1266,150 1266,190 1106,190" fill="#c6f6d5" stroke="none" /><polygon points="1266,190 1506,190 1506,190 1266,190" fill="#edf2f7" stroke="none" /><polyline points="306,150 466,150" fill="none" stroke="black" style="stroke-width:2px"/><polyline points="466,190 466,70" fill="none" stroke="black" stroke-dasharray="10" /><polyline points="466,110 586,110" fill="none" stroke="black" style="stroke-width:2px"/><polyline points="586,190 586,70" fill="none" stroke="black" stroke-dasharray="10" /><polyline points="586,190 706,190" fill="none" stroke="black" style="stroke-width:2px"/><polyline points="706,190 706,70" fill="none" stroke="black" stroke-dasharray="10" /><polyline points="706,150 866,150" fill="none" stroke="black" style="stroke-width:2px"/><polyline points="866,190 866,70" fill="none" stroke="black" stroke-dasharray="10" /><polyline points="866,190 906,190" fill="none" stroke="black" style="stroke-width:2px"/><polyline points="906,190 906,70" fill="none" stroke="black" stroke-dasharray="10" /><polyline points="906,110 1026,110" fill="none" stroke="black" style="stroke-width:2px"/><polyline points="1026,190 1026,70" fill="none" stroke="black" stroke-dasharray="10" /><polyline points="1026,190 1106,190" fill="none" stroke="black" style="stroke-width:2px"/><polyline points="1106,190 1106,70" fill="none" stroke="black" stroke-dasharray="10" /><polyline points="1106,150 1266,150" fill="none" stroke="black" style="stroke-width:2px"/><polyline points="1266,190 1266,70" fill="none" stroke="black" stroke-dasharray="10" /><polyline points="1266,190 1506,190" fill="none" stroke="black" style="stroke-width:2px"/><polyline points="1506,190 1506,70" fill="none" stroke="black" stroke-dasharray="10" /><rect x="296" y="255" width="1220" height="180" stroke="black" fill="none" /><text  x="20" y="345" class="lifeline-label">With Task C</text><text text-anchor="middle" x="306" y="460" class="simple">0</text><line x1="306" y1="430" x2="306" y2="445" stroke="black" /><text text-anchor="middle" x="386" y="460" class="simple">20</text><line x1="386" y1="430" x2="386" y2="445" stroke="black" /><text text-anchor="middle" x="506" y="460" class="simple">50</text><line x1="506" y1="430" x2="506" y2="445" stroke="black" /><text text-anchor="middle" x="586" y="460" class="simple">70</text><line x1="586" y1="430" x2="586" y2="445" stroke="black" /><text text-anchor="middle" x="626" y="460" class="simple">80</text><line x1="626" y1="430" x2="626" y2="445" stroke="black" /><text text-anchor="middle" x="706" y="460" class="simple">100</text><line x1="706" y1="430" x2="706" y2="445" stroke="black" /><text text-anchor="middle" x="786" y="460" class="simple">120</text><line x1="786" y1="430" x2="786" y2="445" stroke="black" /><text text-anchor="middle" x="826" y="460" class="simple">130</text><line x1="826" y1="430" x2="826" y2="445" stroke="black" /><text text-anchor="middle" x="906" y="460" class="simple">150</text><line x1="906" y1="430" x2="906" y2="445" stroke="black" /><text text-anchor="middle" x="986" y="460" class="simple">170</text><line x1="986" y1="430" x2="986" y2="445" stroke="black" /><text text-anchor="middle" x="1066" y="460" class="simple">190</text><line x1="1066" y1="430" x2="1066" y2="445" stroke="black" /><text text-anchor="middle" x="1106" y="460" class="simple">200</text><line x1="1106" y1="430" x2="1106" y2="445" stroke="black" /><text text-anchor="middle" x="1186" y="460" class="simple">220</text><line x1="1186" y1="430" x2="1186" y2="445" stroke="black" /><text text-anchor="middle" x="1266" y="460" class="simple">240</text><line x1="1266" y1="430" x2="1266" y2="445" stroke="black" /><text text-anchor="middle" x="1306" y="460" class="simple">250</text><line x1="1306" y1="430" x2="1306" y2="445" stroke="black" /><text text-anchor="middle" x="1386" y="460" class="simple">270</text><line x1="1386" y1="430" x2="1386" y2="445" stroke="black" /><text text-anchor="middle" x="1506" y="460" class="simple">300</text><line x1="1506" y1="430" x2="1506" y2="445" stroke="black" /><line x1="286" y1="415" x2="301" y2="415" stroke="black" /><polygon points="267,408 281,408 281,422 267,422" fill="#edf2f7" stroke="black" /><text text-anchor="end" x="257" y="420" class="simple">Idle</text><line x1="286" y1="375" x2="301" y2="375" stroke="black" /><polygon points="267,368 281,368 281,382 267,382" fill="#c6f6d5" stroke="black" /><text text-anchor="end" x="257" y="380" class="simple">Task A</text><line x1="286" y1="335" x2="301" y2="335" stroke="black" /><polygon points="267,328 281,328 281,342 267,342" fill="#fefcbf" stroke="black" /><text text-anchor="end" x="257" y="340" class="simple">Task B</text><line x1="286" y1="295" x2="301" y2="295" stroke="black" /><polygon points="267,288 281,288 281,302 267,302" fill="#fed7d7" stroke="black" /><text text-anchor="end" x="257" y="300" class="simple">Task C</text><polygon points="306,295 386,295 386,415 306,415" fill="#fed7d7" stroke="none" /><polygon points="386,375 506,375 506,415 386,415" fill="#c6f6d5" stroke="none" /><polygon points="506,295 586,295 586,415 506,415" fill="#fed7d7" stroke="none" /><polygon points="586,375 626,375 626,415 586,415" fill="#c6f6d5" stroke="none" /><polygon points="626,335 706,335 706,415 626,415" fill="#fefcbf" stroke="none" /><polygon points="706,295 786,295 786,415 706,415" fill="#fed7d7" stroke="none" /><polygon points="786,335 826,335 826,415 786,415" fill="#fefcbf" stroke="none" /><polygon points="826,375 906,375 906,415 826,415" fill="#c6f6d5" stroke="none" /><polygon points="906,295 986,295 986,415 906,415" fill="#fed7d7" stroke="none" /><polygon points="986,375 1066,375 1066,415 986,415" fill="#c6f6d5" stroke="none" /><polygon points="1066,335 1106,335 1106,415 1066,415" fill="#fefcbf" stroke="none" /><polygon points="1106,295 1186,295 1186,415 1106,415" fill="#fed7d7" stroke="none" /><polygon points="1186,335 1266,335 1266,415 1186,415" fill="#fefcbf" stroke="none" /><polygon points="1266,375 1306,375 1306,415 1266,415" fill="#c6f6d5" stroke="none" /><polygon points="1306,295 1386,295 1386,415 1306,415" fill="#fed7d7" stroke="none" /><polygon points="1386,375 1506,375 1506,415 1386,415" fill="#c6f6d5" stroke="none" /><polyline points="306,295 386,295" fill="none" stroke="black" style="stroke-width:2px"/><polyline points="386,415 386,255" fill="none" stroke="black" stroke-dasharray="10" /><polyline points="386,375 506,375" fill="none" stroke="black" style="stroke-width:2px"/><polyline points="506,415 506,255" fill="none" stroke="black" stroke-dasharray="10" /><polyline points="506,295 586,295" fill="none" stroke="black" style="stroke-width:2px"/><polyline points="586,415 586,255" fill="none" stroke="black" stroke-dasharray="10" /><polyline points="586,375 626,375" fill="none" stroke="black" style="stroke-width:2px"/><polyline points="626,415 626,255" fill="none" stroke="black" stroke-dasharray="10" /><polyline points="626,335 706,335" fill="none" stroke="black" style="stroke-width:2px"/><polyline points="706,415 706,255" fill="none" stroke="black" stroke-dasharray="10" /><polyline points="706,295 786,295" fill="none" stroke="black" style="stroke-width:2px"/><polyline points="786,415 786,255" fill="none" stroke="black" stroke-dasharray="10" /><polyline points="786,335 826,335" fill="none" stroke="black" style="stroke-width:2px"/><polyline points="826,415 826,255" fill="none" stroke="black" stroke-dasharray="10" /><polyline points="826,375 906,375" fill="none" stroke="black" style="stroke-width:2px"/><polyline points="906,415 906,255" fill="none" stroke="black" stroke-dasharray="10" /><polyline points="906,295 986,295" fill="none" stroke="black" style="stroke-width:2px"/><polyline points="986,415 986,255" fill="none" stroke="black" stroke-dasharray="10" /><polyline points="986,375 1066,375" fill="none" stroke="black" style="stroke-width:2px"/><polyline points="1066,415 1066,255" fill="none" stroke="black" stroke-dasharray="10" /><polyline points="1066,335 1106,335" fill="none" stroke="black" style="stroke-width:2px"/><polyline points="1106,415 1106,255" fill="none" stroke="black" stroke-dasharray="10" /><polyline points="1106,295 1186,295" fill="none" stroke="black" style="stroke-width:2px"/><polyline points="1186,415 1186,255" fill="none" stroke="black" stroke-dasharray="10" /><polyline points="1186,335 1266,335" fill="none" stroke="black" style="stroke-width:2px"/><polyline points="1266,415 1266,255" fill="none" stroke="black" stroke-dasharray="10" /><polyline points="1266,375 1306,375" fill="none" stroke="black" style="stroke-width:2px"/><polyline points="1306,415 1306,255" fill="none" stroke="black" stroke-dasharray="10" /><polyline points="1306,295 1386,295" fill="none" stroke="black" style="stroke-width:2px"/><polyline points="1386,415 1386,255" fill="none" stroke="black" stroke-dasharray="10" /><polyline points="1386,375 1506,375" fill="none" stroke="black" style="stroke-width:2px"/><polyline points="1506,415 1506,255" fill="none" stroke="black" stroke-dasharray="10" /><rect x="296" y="480" width="1220" height="260" stroke="black" fill="none" /><text  x="20" y="610" class="lifeline-label">With Several Tasks</text><text text-anchor="middle" x="306" y="765" class="simple">0</text><line x1="306" y1="735" x2="306" y2="750" stroke="black" /><text text-anchor="middle" x="426" y="765" class="simple">30</text><line x1="426" y1="735" x2="426" y2="750" stroke="black" /><text text-anchor="middle" x="466" y="765" class="simple">40</text><line x1="466" y1="735" x2="466" y2="750" stroke="black" /><text text-anchor="middle" x="546" y="765" class="simple">60</text><line x1="546" y1="735" x2="546" y2="750" stroke="black" /><text text-anchor="middle" x="586" y="765" class="simple">70</text><line x1="586" y1="735" x2="586" y2="750" stroke="black" /><text text-anchor="middle" x="706" y="765" class="simple">100</text><line x1="706" y1="735" x2="706" y2="750" stroke="black" /><text text-anchor="middle" x="866" y="765" class="simple">140</text><line x1="866" y1="735" x2="866" y2="750" stroke="black" /><text text-anchor="middle" x="1066" y="765" class="simple">190</text><line x1="1066" y1="735" x2="1066" y2="750" stroke="black" /><text text-anchor="middle" x="1186" y="765" class="simple">220</text><line x1="1186" y1="735" x2="1186" y2="750" stroke="black" /><line x1="286" y1="720" x2="301" y2="720" stroke="black" /><polygon points="267,713 281,713 281,727 267,727" fill="#edf2f7" stroke="black" /><text text-anchor="end" x="257" y="725" class="simple">Idle</text><line x1="286" y1="680" x2="301" y2="680" stroke="black" /><polygon points="267,673 281,673 281,687 267,687" fill="#c6f6d5" stroke="black" /><text text-anchor="end" x="257" y="685" class="simple">Task A</text><line x1="286" y1="640" x2="301" y2="640" stroke="black" /><polygon points="267,633 281,633 281,647 267,647" fill="#fefcbf" stroke="black" /><text text-anchor="end" x="257" y="645" class="simple">Task B</text><line x1="286" y1="600" x2="301" y2="600" stroke="black" /><polygon points="267,593 281,593 281,607 267,607" fill="#fed7d7" stroke="black" /><text text-anchor="end" x="257" y="605" class="simple">Task C</text><line x1="286" y1="560" x2="301" y2="560" stroke="black" /><polygon points="267,553 281,553 281,567 267,567" fill="#b2f5ea" stroke="black" /><text text-anchor="end" x="257" y="565" class="simple">Task D</text><line x1="286" y1="520" x2="301" y2="520" stroke="black" /><polygon points="267,513 281,513 281,527 267,527" fill="#e9d8fd" stroke="black" /><text text-anchor="end" x="257" y="525" class="simple">Task E</text><polygon points="306,680 426,680 426,720 306,720" fill="#c6f6d5" stroke="none" /><polygon points="426,640 466,640 466,720 426,720" fill="#fefcbf" stroke="none" /><polygon points="466,600 546,600 546,720 466,720" fill="#fed7d7" stroke="none" /><polygon points="546,640 586,640 586,720 546,720" fill="#fefcbf" stroke="none" /><polygon points="586,720 706,720 706,720 586,720" fill="#edf2f7" stroke="none" /><polygon points="706,560 866,560 866,720 706,720" fill="#b2f5ea" stroke="none" /><polygon points="866,520 1066,520 1066,720 866,720" fill="#e9d8fd" stroke="none" /><polygon points="1066,640 1186,640 1186,720 1066,720" fill="#fefcbf" stroke="none" /><polyline points="306,680 426,680" fill="none" stroke="black" style="stroke-width:2px"/><polyline points="426,720 426,480" fill="none" stroke="black" stroke-dasharray="10" /><polyline points="426,640 466,640" fill="none" stroke="black" style="stroke-width:2px"/><polyline points="466,720 466,480" fill="none" stroke="black" stroke-dasharray="10" /><polyline points="466,600 546,600" fill="none" stroke="black" style="stroke-width:2px"/><polyline points="546,720 546,480" fill="none" stroke="black" stroke-dasharray="10" /><polyline points="546,640 586,640" fill="none" stroke="black" style="stroke-width:2px"/><polyline points="586,720 586,480" fill="none" stroke="black" stroke-dasharray="10" /><polyline points="586,720 706,720" fill="none" stroke="black" style="stroke-width:2px"/><polyline points="706,720 706,480" fill="none" stroke="black" stroke-dasharray="10" /><polyline points="706,560 866,560" fill="none" stroke="black" style="stroke-width:2px"/><polyline points="866,720 866,480" fill="none" stroke="black" stroke-dasharray="10" /><polyline points="866,520 1066,520" fill="none" stroke="black" style="stroke-width:2px"/><polyline points="1066,720 1066,480" fill="none" stroke="black" stroke-dasharray="10" /><polyline points="1066,640 1186,640" fill="none" stroke="black" style="stroke-width:2px"/><polyline points="1186,720 1186,480" fill="none" stroke="black" stroke-dasharray="10" /></svg>
